<?xml version="1.0" encoding="UTF-8"?>
<svg id="Layer_12" data-name="Layer 12" xmlns="http://www.w3.org/2000/svg" viewBox="0 0 288 288">
  <defs>
    <style>
      .cls-1 {
        fill: #fff;
      }

      .cls-2 {
        fill: #ffe4c0;
      }

      .cls-3 {
        fill: #ff4040;
      }

      .cls-4 {
        fill: #fa0;
      }
    </style>
  </defs>
  <circle cx="144" cy="144" r="54"/>
  <g>
    <path class="cls-4" d="m188.37,182.76c-1.22-1.45-3.14-4.82-3.48-9.2-.48-5.94-.66-11.92-.94-17.87-.47-10-1.24-20.08-1.13-30.1.09-8.5.15-18.71-6.48-25.05-3.55-3.4-8.08-6.14-12.86-7.37-6.81-1.75-15.84-.28-21.59,3.83-4.24,3.03-7.24,7.44-9.17,12.22-.14.34-.81,2.52-1.13,2.52.02,0,17.91-.29,17.91-.29,1.53-1.51,3.34-3.03,5.52-3.4,2.81-.47,5.84.51,7.82,2.56,2.55,2.64,2.18,6.6,2.05,9.98-.26,6.69-.52,13.38-.79,20.07,0,0-.19,3.54-.52,12.78-.34,9.24-.46,14.98-2.18,22.59-1.71,7.61-5.08,8.59-5.08,8.59,0,0-.17,1.05.29,2.21.46,1.16,1.22,2.56,3.95,2.93,2.73.37,5.05-1.65,5.05-1.65,0,0,2.09,1.57,4.36,1.65,2.26.08,3.6-1.53,3.6-1.53,0,0,2.21,1.63,4.41,1.53,2.21-.1,3.66-1.7,3.66-1.7,0,0,1.86,2.38,5.28,1.51s4.3-4.59,4.3-4.59c0,0-1.63-.75-2.85-2.21Zm-19.32.23c0,1.37-2.12,1.37-2.12,0v-54.35c0-1.37,2.12-1.37,2.12,0v54.35Zm5.4-.87c0,1.37-2.12,1.37-2.12,0v-65.68c0-1.37,2.12-1.37,2.12,0v65.68Zm5.23.52c0,1.37-2.12,1.37-2.12,0v-60.63c0-1.37,2.12-1.37,2.12,0v60.63Z"/>
    <path class="cls-4" d="m125.19,107.99s1.68-7.4.64-11.59-4.77-2.26-5-.87.64,4.53,1.51,6.88,2.85,5.57,2.85,5.57Z"/>
    <path class="cls-4" d="m128.91,107.45s6.45-5.98,8.49-10.54c2.03-4.56-2.29-4.94-3.44-3.77s-2.6,4.65-3.51,7.37-1.54,6.93-1.54,6.93Z"/>
    <path class="cls-2" d="m118.85,114.7s-11.84.54-15.21,12.61c-4.36,15.56,9.45,24.1,9.45,24.1l.77-6.55s-8.37-6.85-5.68-16.08c2.44-8.36,12.31-9.49,12.31-9.49l-1.63-4.59Z"/>
    <path class="cls-3" d="m122.22,131.37h12.78v64.46h-21.95l9.52-9.52-7.78-26.25s-1.74-2.67-1.74-10.69,9.18-18,9.18-18Z"/>
    <path class="cls-3" d="m147.75,131.37h-12.78s0,64.46,0,64.46h21.95s-9.52-9.52-9.52-9.52l7.78-26.25s1.74-2.67,1.74-10.69-9.18-18-9.18-18Z"/>
    <path class="cls-3" d="m115.37,110.81s2.79,1.97,4.65,8.94c1.86,6.97,2.21,11.61,2.21,11.61h12.78v-20.56h-19.63Z"/>
    <polygon class="cls-2" points="135 135.61 120.83 133.01 122.22 131.37 135 131.37 135 135.61"/>
    <path class="cls-2" d="m135,190.6v5.23h-21.43c-1.44,0-2.61-1.17-2.61-2.61h0c0-1.44,1.17-2.61,2.61-2.61h21.43Z"/>
    <path class="cls-2" d="m115.02,160.82s13.55,17.06,17.06,17.06,2.93,0,2.93,0v4.25s-2.51-2.57-5.08,0c-2.57,2.57-7.35,4.18-7.35,4.18l-7.56-25.49Z"/>
    <path class="cls-2" d="m151.12,114.7s11.84.54,15.21,12.61c4.36,15.56-9.45,24.1-9.45,24.1l-.77-6.55s8.37-6.85,5.68-16.08c-2.44-8.36-12.31-9.49-12.31-9.49l1.63-4.59Z"/>
    <path class="cls-3" d="m154.6,110.81s-2.79,1.97-4.65,8.94-2.21,11.61-2.21,11.61h-12.78v-20.56h19.63Z"/>
    <polygon class="cls-2" points="134.97 135.6 149.14 133.01 147.75 131.37 134.97 131.37 134.97 135.6"/>
    <path class="cls-2" d="m134.97,190.6v5.23s21.43,0,21.43,0c1.44,0,2.61-1.17,2.61-2.61h0c0-1.44-1.17-2.61-2.61-2.61h-21.43Z"/>
    <path class="cls-2" d="m154.95,160.82s-13.55,17.06-17.06,17.06c-3.51,0-2.93,0-2.93,0v4.25s2.51-2.57,5.08,0,7.35,4.18,7.35,4.18l7.56-25.49Z"/>
  </g>
  <g>
    <path class="cls-1" d="m104.02,180.7l-.59-1.78c-.19-.57-.63-1.01-1.2-1.2l-1.78-.59,1.78-.59c.57-.19,1.01-.63,1.2-1.2l.59-1.78.59,1.78c.19.57.63,1.01,1.2,1.2l1.78.59-1.78.59c-.57.19-1.01.63-1.2,1.2l-.59,1.78Z"/>
    <path class="cls-1" d="m190.21,139.18l-.59-1.78c-.19-.57-.63-1.01-1.2-1.2l-1.78-.59,1.78-.59c.57-.19,1.01-.63,1.2-1.2l.59-1.78.59,1.78c.19.57.63,1.01,1.2,1.2l1.78.59-1.78.59c-.57.19-1.01.63-1.2,1.2l-.59,1.78Z"/>
    <path class="cls-1" d="m99.46,202.65l-.39-1.16c-.12-.37-.41-.66-.78-.78l-1.16-.39,1.16-.39c.37-.12.66-.41.78-.78l.39-1.16.39,1.16c.12.37.41.66.78.78l1.16.39-1.16.39c-.37.12-.66.41-.78.78l-.39,1.16Z"/>
    <path class="cls-1" d="m200,158.83l-1.08-3.24c-.34-1.03-1.15-1.84-2.18-2.18l-3.24-1.08,3.24-1.08c1.03-.34,1.84-1.15,2.18-2.18l1.08-3.24,1.08,3.24c.34,1.03,1.15,1.84,2.18,2.18l3.24,1.08-3.24,1.08c-1.03.34-1.84,1.15-2.18,2.18l-1.08,3.24Z"/>
    <path class="cls-1" d="m85.82,173.82l-1.08-3.24c-.34-1.03-1.15-1.84-2.18-2.18l-3.24-1.08,3.24-1.08c1.03-.34,1.84-1.15,2.18-2.18l1.08-3.24,1.08,3.24c.34,1.03,1.15,1.84,2.18,2.18l3.24,1.08-3.24,1.08c-1.03.34-1.84,1.15-2.18,2.18l-1.08,3.24Z"/>
    <path class="cls-1" d="m101.79,103l-1.08-3.24c-.34-1.03-1.15-1.84-2.18-2.18l-3.24-1.08,3.24-1.08c1.03-.34,1.84-1.15,2.18-2.18l1.08-3.24,1.08,3.24c.34,1.03,1.15,1.84,2.18,2.18l3.24,1.08-3.24,1.08c-1.03.34-1.84,1.15-2.18,2.18l-1.08,3.24Z"/>
  </g>
</svg>