<?xml version="1.0" encoding="UTF-8"?>
<svg id="Layer_2" data-name="Layer 2" xmlns="http://www.w3.org/2000/svg" viewBox="0 0 288 288">
  <defs>
    <style>
      .cls-1 {
        fill: #fff;
      }

      .cls-2 {
        fill: #ffe4c0;
      }

      .cls-3 {
        fill: #ff4040;
      }

      .cls-4 {
        fill: #fa0;
      }
    </style>
  </defs>
  <circle cx="144" cy="144" r="54"/>
  <g>
    <path class="cls-1" d="m110.5,190.52l-1.08-3.24c-.34-1.03-1.15-1.84-2.18-2.18l-3.24-1.08,3.24-1.08c1.03-.34,1.84-1.15,2.18-2.18l1.08-3.24,1.08,3.24c.34,1.03,1.15,1.84,2.18,2.18l3.24,1.08-3.24,1.08c-1.03.34-1.84,1.15-2.18,2.18l-1.08,3.24Z"/>
    <path class="cls-1" d="m107.88,133.69l-.59-1.78c-.19-.57-.63-1.01-1.2-1.2l-1.78-.59,1.78-.59c.57-.19,1.01-.63,1.2-1.2l.59-1.78.59,1.78c.19.57.63,1.01,1.2,1.2l1.78.59-1.78.59c-.57.19-1.01.63-1.2,1.2l-.59,1.78Z"/>
    <path class="cls-1" d="m121.38,97.45l-.39-1.16c-.12-.37-.41-.66-.78-.78l-1.16-.39,1.16-.39c.37-.12.66-.41.78-.78l.39-1.16.39,1.16c.12.37.41.66.78.78l1.16.39-1.16.39c-.37.12-.66.41-.78.78l-.39,1.16Z"/>
    <path class="cls-1" d="m81.38,171.14l-.39-1.16c-.12-.37-.41-.66-.78-.78l-1.16-.39,1.16-.39c.37-.12.66-.41.78-.78l.39-1.16.39,1.16c.12.37.41.66.78.78l1.16.39-1.16.39c-.37.12-.66.41-.78.78l-.39,1.16Z"/>
    <path class="cls-1" d="m144,108.13l-1.08-3.24c-.34-1.03-1.15-1.84-2.18-2.18l-3.24-1.08,3.24-1.08c1.03-.34,1.84-1.15,2.18-2.18l1.08-3.24,1.08,3.24c.34,1.03,1.15,1.84,2.18,2.18l3.24,1.08-3.24,1.08c-1.03.34-1.84,1.15-2.18,2.18l-1.08,3.24Z"/>
    <path class="cls-1" d="m177.68,190.52l1.08-3.24c.34-1.03,1.15-1.84,2.18-2.18l3.24-1.08-3.24-1.08c-1.03-.34-1.84-1.15-2.18-2.18l-1.08-3.24-1.08,3.24c-.34,1.03-1.15,1.84-2.18,2.18l-3.24,1.08,3.24,1.08c1.03.34,1.84,1.15,2.18,2.18l1.08,3.24Z"/>
    <path class="cls-1" d="m180.3,133.69l.59-1.78c.19-.57.63-1.01,1.2-1.2l1.78-.59-1.78-.59c-.57-.19-1.01-.63-1.2-1.2l-.59-1.78-.59,1.78c-.19.57-.63,1.01-1.2,1.2l-1.78.59,1.78.59c.57.19,1.01.63,1.2,1.2l.59,1.78Z"/>
    <path class="cls-1" d="m166.8,97.45l.39-1.16c.12-.37.41-.66.78-.78l1.16-.39-1.16-.39c-.37-.12-.66-.41-.78-.78l-.39-1.16-.39,1.16c-.12.37-.41.66-.78.78l-1.16.39,1.16.39c.37.12.66.41.78.78l.39,1.16Z"/>
    <path class="cls-1" d="m206.8,171.14l.39-1.16c.12-.37.41-.66.78-.78l1.16-.39-1.16-.39c-.37-.12-.66-.41-.78-.78l-.39-1.16-.39,1.16c-.12.37-.41.66-.78.78l-1.16.39,1.16.39c.37.12.66.41.78.78l.39,1.16Z"/>
  </g>
  <g>
    <path class="cls-2" d="m144,192.68h-4.03s-2.29-.2-3.84-1.42-1.89-4.25-1.89-4.25l9.76.34v5.33Z"/>
    <path class="cls-3" d="m144,187.35s-.06-1.75-.87-2.7-3.2-1.83-4.31-2.64-1.14-.73-1.67-1.57-.08-1.73-.08-1.73l-1.76-19.23s-3.77.28-5.45-1.2-2.45-3.39-2.36-5.6c.05-1.22.58-3.19.58-3.19l-4.48-2.91.18,11.02s.15,4.25,3.39,7.35,3.37,4.11,3.37,4.11c0,0-.2,13.96.61,15.51s1.42,3.17,4.45,3.64,8.42-.88,8.42-.88Z"/>
    <path class="cls-4" d="m97.73,153.33c-1.07-3.4-2.12-7.12-2.26-10.69-.33-8.62,3.84-17.58,10.36-22.52-3.63-.02-7.24.52-10.76,1.49-2.25.62-4.51,1.37-6.64,2.35-1.54.71-2.85,1.65-4.18,2.62-3.69,12.19-1.96,26.41,5.9,36.47,1.35,1.73,2.92,3.26,4.63,4.55,4.08-.19,8.46-1,11.9-3.15-1.36-.76-2.73-1.75-3.14-2.16-3.05-3.01-4.61-5.13-5.82-8.96Z"/>
    <path class="cls-2" d="m144,128.77v51.24s-4.24-2.02-5.45-1.89-1.48.61-1.48.61c0,0-1.62-19.62-2.56-21.91s-2.49-4.25-4.99-6-5.39-2.9-6.88-5.39-.4-8.63-.4-8.63c0,0-1.69,2.83-2.63,5.12s-2.36,8.49-5.26,11.19-6.34,6.67-14.49,4.99c0,0-4.31-1.62-6.4-5.19s-4.58-6.67-4.65-8.29.4-2.83,2.76-3.03,10.58,0,13.08-.54,11.6-4.99,14.43-6.2,3.98-1.55,7.48-3.37c0,0,5.87-2.43,11.33-2.7s6.12,0,6.12,0Z"/>
    <path class="cls-4" d="m117.72,142.93c-2.02-1.75-5.39-4.11-5.36-3.24s4.73,5.86,3.59,13.85c-.98,6.85-3.61,9.39-4.79,10.48-.05.05-.17.15-.32.28-3.27,3.25-7.92,4.83-12.6,5.46,2.22,1.14,4.61,1.95,7.14,2.32,6.44.96,11.89-2.34,15.31-7.65,4.25-6.61.81-16.18.81-16.18,0,0-1.75-3.57-3.78-5.33Z"/>
    <path class="cls-4" d="m139.73,121.88s-4.15-9.08-12.37-13.74c-7.42-4.2-16.85-6.4-25.01-3.08-5.63,2.29-10.09,6.33-13.41,11.38-1.29,1.96-2.38,4.06-3.29,6.25.68-.41,1.39-.81,2.16-1.14,2.14-.93,4.37-1.7,6.62-2.32,4.8-1.33,9.84-1.91,14.81-1.41.17.02.33.07.46.14,1.61.19,6.68,2.91,7.31,3.25,0,0,5.51,3.51,8.36,8.7.3.54.68,1.03,1.07,1.49,1.97,2.36,4.73,3.87,8.04,3.66,4.9-.3,7.13-2.98,7.69-4.96.56-1.97-2.43-8.24-2.43-8.24Z"/>
    <path class="cls-2" d="m144,192.68h4.03s2.29-.2,3.84-1.42,1.89-4.25,1.89-4.25l-9.76.34v5.33Z"/>
    <path class="cls-3" d="m144,187.35s.06-1.75.87-2.7,3.2-1.83,4.31-2.64,1.14-.73,1.67-1.57.08-1.73.08-1.73l1.76-19.23s3.77.28,5.45-1.2,2.45-3.39,2.36-5.6c-.05-1.22-.58-3.19-.58-3.19l4.48-2.91-.18,11.02s-.15,4.25-3.39,7.35-3.37,4.11-3.37,4.11c0,0,.2,13.96-.61,15.51s-1.42,3.17-4.45,3.64-8.42-.88-8.42-.88Z"/>
    <path class="cls-4" d="m190.27,153.33c1.07-3.4,2.12-7.12,2.26-10.69.33-8.62-3.84-17.58-10.36-22.52,3.63-.02,7.24.52,10.76,1.49,2.25.62,4.51,1.37,6.64,2.35,1.54.71,2.85,1.65,4.18,2.62,3.69,12.19,1.96,26.41-5.9,36.47-1.35,1.73-2.92,3.26-4.63,4.55-4.08-.19-8.46-1-11.9-3.15,1.36-.76,2.73-1.75,3.14-2.16,3.05-3.01,4.61-5.13,5.82-8.96Z"/>
    <path class="cls-2" d="m144,128.77v51.24s4.24-2.02,5.45-1.89,1.48.61,1.48.61c0,0,1.62-19.62,2.56-21.91s2.49-4.25,4.99-6c2.49-1.75,5.39-2.9,6.88-5.39s.4-8.63.4-8.63c0,0,1.69,2.83,2.63,5.12s2.36,8.49,5.26,11.19,6.34,6.67,14.49,4.99c0,0,4.31-1.62,6.4-5.19s4.58-6.67,4.65-8.29-.4-2.83-2.76-3.03-10.58,0-13.08-.54-11.6-4.99-14.43-6.2-3.98-1.55-7.48-3.37c0,0-5.87-2.43-11.33-2.7s-6.12,0-6.12,0Z"/>
    <path class="cls-4" d="m170.28,142.93c2.02-1.75,5.39-4.11,5.36-3.24s-4.73,5.86-3.59,13.85c.98,6.85,3.61,9.39,4.79,10.48.05.05.17.15.32.28,3.27,3.25,7.92,4.83,12.6,5.46-2.22,1.14-4.61,1.95-7.14,2.32-6.44.96-11.89-2.34-15.31-7.65-4.25-6.61-.81-16.18-.81-16.18,0,0,1.75-3.57,3.78-5.33Z"/>
    <path class="cls-4" d="m148.27,121.88s4.15-9.08,12.37-13.74c7.42-4.2,16.85-6.4,25.01-3.08,5.63,2.29,10.09,6.33,13.41,11.38,1.29,1.96,2.38,4.06,3.29,6.25-.68-.41-1.39-.81-2.16-1.14-2.14-.93-4.37-1.7-6.62-2.32-4.8-1.33-9.84-1.91-14.81-1.41-.17.02-.33.07-.46.14-1.61.19-6.68,2.91-7.31,3.25,0,0-5.51,3.51-8.36,8.7-.3.54-.68,1.03-1.07,1.49-1.97,2.36-4.73,3.87-8.04,3.66-4.9-.3-7.13-2.98-7.69-4.96-.56-1.97,2.43-8.24,2.43-8.24Z"/>
  </g>
</svg>