<?xml version="1.0" encoding="UTF-8"?>
<svg id="Layer_5" data-name="Layer 5" xmlns="http://www.w3.org/2000/svg" viewBox="0 0 288 288">
  <defs>
    <style>
      .cls-1 {
        fill: #fff;
      }

      .cls-2 {
        fill: #ffe4c0;
      }

      .cls-3 {
        fill: #ff4040;
      }

      .cls-4 {
        fill: #fa0;
      }
    </style>
  </defs>
  <circle cx="144" cy="144" r="54"/>
  <g>
    <path class="cls-4" d="m82.21,132.62s1.61,4.07,1.36,6.3l-.25,2.22s3.33,2.96,4.82,5.68c1.48,2.72,1.85,4.94,1.85,4.94,0,0,4.45-1.02,9.88-1.52,5.43-.49,13.7.04,13.7.04l.49,2.3s-7.67,3.55-13.22,3.47c-4.99-.08-11.35-.71-15.05-4.91-2.27-2.58-4.02-5.77-4.64-9.18-.6-3.31.5-6.14,1.06-9.34Z"/>
    <path class="cls-4" d="m114.07,158.06s-8.4,2.72-11.85,4.44c-2.2,1.1-9.01,6.17-9.01,6.17,0,0-1.52-1.79-4.24-4.02-2.72-2.22-8.14-4.75-8.14-4.75,0,0,1.27-2.47-1.57-5.93-2.84-3.46-2.1-1.4-2.1-1.4,0,0,.91,7.45,3.67,10.41,2.75,2.96,8.31,7.78,13.73,7.78,7.91,0,16.45-6.17,16.45-6.17l4.67-3.23-1.61-3.32Z"/>
    <path class="cls-4" d="m117.4,166.82s-6.17,1.61-10,4.94-7.28,9.26-6.42,15.19c.86,5.93,2.84,7.28,3.95,8.89s3.58,2.59,3.58,2.59c0,0-.29-3.45-1.29-4.86-1.23-1.73-3.65-3.16-3.65-3.16,0,0,1.68-2.7,2.32-6.11.66-3.52.4-7.96.4-7.96,0,0,3.47-.06,5.57-.92s8.38-4.63,8.38-4.63l-2.84-3.95Z"/>
    <path class="cls-4" d="m117.53,194.6s-2.47-5.56-.86-11.98c1.61-6.42,8.27-8.64,8.27-8.64l1.61,2.72s-2.31,3.01-3.83,4.57c-1.04,1.07-4.44,3.02-4.44,3.02,0,0,1.23,3.4.86,5.74s-1.61,4.57-1.61,4.57Z"/>
    <path class="cls-2" d="m114.93,138.24s-2.28-.67-4.2-2.06-2.5-4.25-3.33-5.47c-.84-1.22-2.41-1.61-2.41-1.61l-6.73,5.93s-.62,1.3,2.78,2.65,10.56,5.06,11.67,5.12,2.22-4.57,2.22-4.57Z"/>
    <path class="cls-3" d="m143.95,127.19s-5,.37-8.15,0-6.85-1.85-14.82,4.26c-7.96,6.11-9.82,10.93-9.82,15.93s1.85,15,7.78,23.71,10.74,7.22,15.93,7.22,9.13.1,9.13.1l-.05-51.21Z"/>
    <path class="cls-4" d="m99.48,97.96c3.04-.61,6.16-.61,9.2-1.13-.03-1.83.02-4.36.45-5.82.74-2.47,4.69-9.01,4.32-9.38-.37-.37-7.41-.37-12.84,6.17-3.36,4.05-4.88,8.66-5.55,11.59,1.4-.65,2.89-1.13,4.42-1.43Z"/>
    <path class="cls-4" d="m130.86,83.48s-2.6.62-3.28,2.22c-.67,1.61-1.17,2.96-2.77,3.21-1.61.25-1.23,1.11-1.61,2.1-.37.99-1.73,2.35-2.35,2.59-.62.25-2.22-.37-3.09.62-.86.99-3.09,4.69-5.19,4.69-1.4,0-2.62.05-3.29.09-2.82.49-5.7.52-8.52,1-2.16.37-4.3,1.05-6.2,2.16-.01.12-.02.2-.02.2,0,0-2.46,1.48-2.58,4.07-.12,2.59,0,5.8,0,5.8,0,0-1.85-.62-.74,5.93,1.11,6.54,2.59,14.94,5.31,16.79,2.72,1.85,6.3,1.36,7.9,0,1.61-1.36,2.72-7.41,2.59-10.49-.05-1.3-.21-2.19-.38-2.77-.03-.04-.07-.07-.1-.11-1.09-2.27-2.79-4.22-4.73-5.81-1.82-1.49-4.12-2.8-6.52-2.89-1.45-.05-1.45-2.31,0-2.26,2.92.11,5.58,1.54,7.83,3.32,2.01,1.59,3.82,3.61,5.05,5.88,3.53-1.55,10.96-5.35,15.89-11.65,6.67-8.52,6.17-12.22,6.79-16.54.62-4.32,0-8.15,0-8.15Z"/>
    <path class="cls-4" d="m205.79,132.62s-1.61,4.07-1.36,6.3l.25,2.22s-3.33,2.96-4.82,5.68c-1.48,2.72-1.85,4.94-1.85,4.94,0,0-4.45-1.02-9.88-1.52s-13.7.04-13.7.04l-.49,2.3s7.67,3.55,13.22,3.47c4.99-.08,11.35-.71,15.05-4.91,2.27-2.58,4.02-5.77,4.64-9.18.6-3.31-.5-6.14-1.06-9.34Z"/>
    <path class="cls-4" d="m173.93,158.06s8.4,2.72,11.85,4.44c2.2,1.1,9.01,6.17,9.01,6.17,0,0,1.52-1.79,4.24-4.02s8.14-4.75,8.14-4.75c0,0-1.27-2.47,1.57-5.93,2.84-3.46,2.1-1.4,2.1-1.4,0,0-.91,7.45-3.67,10.41s-8.31,7.78-13.73,7.78c-7.91,0-16.45-6.17-16.45-6.17l-4.67-3.23,1.61-3.32Z"/>
    <path class="cls-4" d="m170.6,166.82s6.17,1.61,10,4.94c3.83,3.33,7.28,9.26,6.42,15.19-.86,5.93-2.84,7.28-3.95,8.89-1.11,1.61-3.58,2.59-3.58,2.59,0,0,.29-3.45,1.29-4.86,1.23-1.73,3.65-3.16,3.65-3.16,0,0-1.68-2.7-2.32-6.11s-.4-7.96-.4-7.96c0,0-3.47-.06-5.57-.92-2.21-.91-8.38-4.63-8.38-4.63l2.84-3.95Z"/>
    <path class="cls-4" d="m170.47,194.6s2.47-5.56.86-11.98c-1.61-6.42-8.27-8.64-8.27-8.64l-1.61,2.72s2.31,3.01,3.83,4.57c1.04,1.07,4.44,3.02,4.44,3.02,0,0-1.23,3.4-.86,5.74s1.61,4.57,1.61,4.57Z"/>
    <path class="cls-2" d="m173.07,138.24s2.28-.67,4.2-2.06c1.91-1.4,2.5-4.25,3.33-5.47.84-1.22,2.41-1.61,2.41-1.61l6.73,5.93s.62,1.3-2.78,2.65-10.56,5.06-11.67,5.12-2.22-4.57-2.22-4.57Z"/>
    <path class="cls-3" d="m144.05,127.19s5,.37,8.15,0,6.85-1.85,14.82,4.26,9.82,10.93,9.82,15.93c0,5-1.85,15-7.78,23.71-5.93,8.7-10.74,7.22-15.93,7.22s-9.13.1-9.13.1l.05-51.21Z"/>
    <path class="cls-4" d="m188.52,97.96c-3.04-.61-6.16-.61-9.2-1.13.03-1.83-.02-4.36-.45-5.82-.74-2.47-4.69-9.01-4.32-9.38.37-.37,7.41-.37,12.84,6.17,3.36,4.05,4.88,8.66,5.55,11.59-1.4-.65-2.89-1.13-4.42-1.43Z"/>
    <path class="cls-4" d="m157.14,83.48s2.6.62,3.28,2.22c.67,1.61,1.17,2.96,2.77,3.21,1.61.25,1.23,1.11,1.61,2.1.37.99,1.73,2.35,2.35,2.59.62.25,2.22-.37,3.09.62.86.99,3.09,4.69,5.19,4.69,1.4,0,2.62.05,3.29.09,2.82.49,5.7.52,8.52,1,2.16.37,4.3,1.05,6.2,2.16.01.12.02.2.02.2,0,0,2.46,1.48,2.58,4.07.12,2.59,0,5.8,0,5.8,0,0,1.85-.62.74,5.93s-2.59,14.94-5.31,16.79c-2.72,1.85-6.3,1.36-7.9,0-1.61-1.36-2.72-7.41-2.59-10.49.05-1.3.21-2.19.38-2.77.03-.04.07-.07.1-.11,1.09-2.27,2.79-4.22,4.73-5.81,1.82-1.49,4.12-2.8,6.52-2.89,1.45-.05,1.45-2.31,0-2.26-2.92.11-5.58,1.54-7.83,3.32-2.01,1.59-3.82,3.61-5.05,5.88-3.53-1.55-10.96-5.35-15.89-11.65-6.67-8.52-6.17-12.22-6.79-16.54-.62-4.32,0-8.15,0-8.15Z"/>
  </g>
  <g>
    <path class="cls-1" d="m122.56,126.5l-.59-1.78c-.19-.57-.63-1.01-1.2-1.2l-1.78-.59,1.78-.59c.57-.19,1.01-.63,1.2-1.2l.59-1.78.59,1.78c.19.57.63,1.01,1.2,1.2l1.78.59-1.78.59c-.57.19-1.01.63-1.2,1.2l-.59,1.78Z"/>
    <path class="cls-1" d="m89.09,186.95l-.59-1.78c-.19-.57-.63-1.01-1.2-1.2l-1.78-.59,1.78-.59c.57-.19,1.01-.63,1.2-1.2l.59-1.78.59,1.78c.19.57.63,1.01,1.2,1.2l1.78.59-1.78.59c-.57.19-1.01.63-1.2,1.2l-.59,1.78Z"/>
    <path class="cls-1" d="m132.4,188.47l-.39-1.16c-.12-.37-.41-.66-.78-.78l-1.16-.39,1.16-.39c.37-.12.66-.41.78-.78l.39-1.16.39,1.16c.12.37.41.66.78.78l1.16.39-1.16.39c-.37.12-.66.41-.78.78l-.39,1.16Z"/>
    <path class="cls-1" d="m84.31,106.05l-.39-1.16c-.12-.37-.41-.66-.78-.78l-1.16-.39,1.16-.39c.37-.12.66-.41.78-.78l.39-1.16.39,1.16c.12.37.41.66.78.78l1.16.39-1.16.39c-.37.12-.66.41-.78.78l-.39,1.16Z"/>
    <path class="cls-1" d="m144.22,118.33l-1.08-3.24c-.34-1.03-1.15-1.84-2.18-2.18l-3.24-1.08,3.24-1.08c1.03-.34,1.84-1.15,2.18-2.18l1.08-3.24,1.08,3.24c.34,1.03,1.15,1.84,2.18,2.18l3.24,1.08-3.24,1.08c-1.03.34-1.84,1.15-2.18,2.18l-1.08,3.24Z"/>
    <path class="cls-1" d="m165.87,126.5l.59-1.78c.19-.57.63-1.01,1.2-1.2l1.78-.59-1.78-.59c-.57-.19-1.01-.63-1.2-1.2l-.59-1.78-.59,1.78c-.19.57-.63,1.01-1.2,1.2l-1.78.59,1.78.59c.57.19,1.01.63,1.2,1.2l.59,1.78Z"/>
    <path class="cls-1" d="m199.34,186.95l.59-1.78c.19-.57.63-1.01,1.2-1.2l1.78-.59-1.78-.59c-.57-.19-1.01-.63-1.2-1.2l-.59-1.78-.59,1.78c-.19.57-.63,1.01-1.2,1.2l-1.78.59,1.78.59c.57.19,1.01.63,1.2,1.2l.59,1.78Z"/>
    <path class="cls-1" d="m156.03,188.47l.39-1.16c.12-.37.41-.66.78-.78l1.16-.39-1.16-.39c-.37-.12-.66-.41-.78-.78l-.39-1.16-.39,1.16c-.12.37-.41.66-.78.78l-1.16.39,1.16.39c.37.12.66.41.78.78l.39,1.16Z"/>
    <path class="cls-1" d="m204.13,106.05l.39-1.16c.12-.37.41-.66.78-.78l1.16-.39-1.16-.39c-.37-.12-.66-.41-.78-.78l-.39-1.16-.39,1.16c-.12.37-.41.66-.78.78l-1.16.39,1.16.39c.37.12.66.41.78.78l.39,1.16Z"/>
  </g>
</svg>