<?xml version="1.0" encoding="UTF-8"?>
<svg id="Layer_11" data-name="Layer 11" xmlns="http://www.w3.org/2000/svg" viewBox="0 0 288 288">
  <defs>
    <style>
      .cls-1 {
        fill: #fff;
      }

      .cls-2 {
        fill: #ffe4c0;
      }

      .cls-3 {
        fill: #ff4040;
      }

      .cls-4 {
        fill: #fa0;
      }
    </style>
  </defs>
  <circle cx="144" cy="144" r="54"/>
  <g>
    <path class="cls-2" d="m144,189.48h-3.86s-2.19-.19-3.68-1.36-1.81-4.07-1.81-4.07l9.35.32v5.1Z"/>
    <path class="cls-3" d="m144,184.39s-.05-1.68-.83-2.58-3.07-1.75-4.13-2.53-1.09-.7-1.6-1.5-.08-1.65-.08-1.65c0,0-1.89-17.02-1.89-17.03.03.28-3.01-.16-3.32-.28-1.59-.6-2.7-2.12-2.91-3.79-.24-1.92.89-3.52,2.19-4.81l-6.96-4.84.17,10.55s.14,4.07,3.24,7.03,3.23,3.94,3.23,3.94c0,0-.19,13.36.58,14.84s1.36,3.03,4.26,3.49c2.9.45,8.06-.84,8.06-.84Z"/>
    <path class="cls-4" d="m83.7,76.52c-2.27.25-4.58.8-6.91,1.7-.05.02-.2.11-.25.1,2.02.32,3.99.87,5.91,1.59.31-1.18.72-2.32,1.26-3.39Z"/>
    <path class="cls-4" d="m90.1,81.05c.55-1.38,1.23-2.8,2.11-4.06-1.65-.36-3.33-.57-5.04-.61-.02.02-.04.05-.05.07-.56.85-1.01,1.78-1.31,2.62-.25.68-.44,1.35-.6,2.01,1.41.67,2.78,1.44,4.1,2.28.23-.78.49-1.55.8-2.31Z"/>
    <path class="cls-4" d="m96.98,89.54c1.51-2.95,3.35-5.7,5.59-8.14-2.31-1.47-4.75-2.68-7.29-3.54-.25.28-.49.58-.71.89-.73,1.06-1.31,2.23-1.76,3.43-.37.96-.66,1.95-.92,2.95,1.81,1.34,3.51,2.83,5.1,4.4Z"/>
    <path class="cls-4" d="m101.44,94.63c.95-1.05,1.94-2.05,2.99-2.99,1.73-1.54,3.63-2.98,5.71-4.04-1.62-1.62-3.32-3.15-5.13-4.49-2.42,2.57-4.35,5.51-5.89,8.69.33.37.68.74.99,1.12.47.56.9,1.13,1.32,1.71Z"/>
    <path class="cls-4" d="m116.56,112c2.81-.83,5.72-1.32,8.65-1.5-2.01-3.4-3.81-6.9-5.72-10.38-.19-.34-.4-.67-.59-1.01-4.52,1.56-8.28,4.45-11.56,7.92.87,2.56,1.67,5.17,2.55,7.76,2.14-1.1,4.32-2.09,6.67-2.79Z"/>
    <path class="cls-4" d="m116.98,124.25c4.06-2.51,8.75-4.75,13.57-5.75-1.02-1.38-2.1-2.91-3.24-4.63-.11-.16-.2-.33-.31-.49-3.27.06-6.52.52-9.67,1.46-2.28.68-4.4,1.66-6.47,2.74,1.11,3.04,2.28,5.92,3.41,8.55.86-.66,1.75-1.29,2.7-1.87Z"/>
    <path class="cls-4" d="m132.58,121.13c-5.01.72-9.91,3.07-14.11,5.66-1.05.65-2.02,1.36-2.96,2.1,2.9,6.44,5.28,10.73,5.28,10.73l21.28-9.67s-3.48-1.37-9.49-8.82Z"/>
    <path class="cls-4" d="m117.32,96.54c-1.51-2.33-3.2-4.58-5.06-6.69-2.19.95-4.16,2.44-5.92,4.03-1.14,1.03-2.23,2.13-3.25,3.29,1.26,2.16,2.26,4.43,3.15,6.77,3.2-3.18,6.85-5.82,11.08-7.4Z"/>
    <path class="cls-2" d="m144,128.78h-8.99s-2.34-.4-6.05,1.53-32.97,35.39-32.97,35.39c0,0,14.19.81,20.8-5.64s7.42-14.03,7.42-14.03c0,0,9.19,5.16,10,8.54s3.02,21.6,3.02,21.6c0,0,.89-.56,2.34,0s4.43,2.06,4.43,2.06v-49.45Z"/>
    <path class="cls-2" d="m144,189.48h3.86s2.19-.19,3.68-1.36,1.81-4.07,1.81-4.07l-9.35.32v5.1Z"/>
    <path class="cls-3" d="m144,184.39s.05-1.68.83-2.58,3.07-1.75,4.13-2.53,1.09-.7,1.6-1.5.08-1.65.08-1.65c0,0,1.89-17.02,1.89-17.03-.03.28,3.01-.16,3.32-.28,1.59-.6,2.7-2.12,2.91-3.79.24-1.92-.89-3.52-2.19-4.81l6.96-4.84-.17,10.55s-.14,4.07-3.24,7.03c-3.1,2.97-3.23,3.94-3.23,3.94,0,0,.19,13.36-.58,14.84s-1.36,3.03-4.26,3.49c-2.9.45-8.06-.84-8.06-.84Z"/>
    <path class="cls-4" d="m204.3,76.52c2.27.25,4.58.8,6.91,1.7.05.02.2.11.25.1-2.02.32-3.99.87-5.91,1.59-.31-1.18-.72-2.32-1.26-3.39Z"/>
    <path class="cls-4" d="m197.9,81.05c-.55-1.38-1.23-2.8-2.11-4.06,1.65-.36,3.33-.57,5.04-.61.02.02.04.05.05.07.56.85,1.01,1.78,1.31,2.62.25.68.44,1.35.6,2.01-1.41.67-2.78,1.44-4.1,2.28-.23-.78-.49-1.55-.8-2.31Z"/>
    <path class="cls-4" d="m191.02,89.54c-1.51-2.95-3.35-5.7-5.59-8.14,2.31-1.47,4.75-2.68,7.29-3.54.25.28.49.58.71.89.73,1.06,1.31,2.23,1.76,3.43.37.96.66,1.95.92,2.95-1.81,1.34-3.51,2.83-5.1,4.4Z"/>
    <path class="cls-4" d="m186.56,94.63c-.95-1.05-1.94-2.05-2.99-2.99-1.73-1.54-3.63-2.98-5.71-4.04,1.62-1.62,3.32-3.15,5.13-4.49,2.42,2.57,4.35,5.51,5.89,8.69-.33.37-.68.74-.99,1.12-.47.56-.9,1.13-1.32,1.71Z"/>
    <path class="cls-4" d="m171.44,112c-2.81-.83-5.72-1.32-8.65-1.5,2.01-3.4,3.81-6.9,5.72-10.38.19-.34.4-.67.59-1.01,4.52,1.56,8.28,4.45,11.56,7.92-.87,2.56-1.67,5.17-2.55,7.76-2.14-1.1-4.32-2.09-6.67-2.79Z"/>
    <path class="cls-4" d="m171.02,124.25c-4.06-2.51-8.75-4.75-13.57-5.75,1.02-1.38,2.1-2.91,3.24-4.63.11-.16.2-.33.31-.49,3.27.06,6.52.52,9.67,1.46,2.28.68,4.4,1.66,6.47,2.74-1.11,3.04-2.28,5.92-3.41,8.55-.86-.66-1.75-1.29-2.7-1.87Z"/>
    <path class="cls-4" d="m155.42,121.13c5.01.72,9.91,3.07,14.11,5.66,1.05.65,2.02,1.36,2.96,2.1-2.9,6.44-5.28,10.73-5.28,10.73l-21.28-9.67s3.48-1.37,9.49-8.82Z"/>
    <path class="cls-4" d="m170.68,96.54c1.51-2.33,3.2-4.58,5.06-6.69,2.19.95,4.16,2.44,5.92,4.03,1.14,1.03,2.23,2.13,3.25,3.29-1.26,2.16-2.26,4.43-3.15,6.77-3.2-3.18-6.85-5.82-11.08-7.4Z"/>
    <path class="cls-2" d="m144,128.78h8.99s2.34-.4,6.05,1.53,32.97,35.39,32.97,35.39c0,0-14.19.81-20.8-5.64-6.61-6.45-7.42-14.03-7.42-14.03,0,0-9.19,5.16-10,8.54s-3.02,21.6-3.02,21.6c0,0-.89-.56-2.34,0s-4.43,2.06-4.43,2.06v-49.45Z"/>
  </g>
  <g>
    <path class="cls-1" d="m84.14,152.27l.59-1.78c.19-.57.63-1.01,1.2-1.2l1.78-.59-1.78-.59c-.57-.19-1.01-.63-1.2-1.2l-.59-1.78-.59,1.78c-.19.57-.63,1.01-1.2,1.2l-1.78.59,1.78.59c.57.19,1.01.63,1.2,1.2l.59,1.78Z"/>
    <path class="cls-1" d="m121.25,171.08l.39-1.16c.12-.37.41-.66.78-.78l1.16-.39-1.16-.39c-.37-.12-.66-.41-.78-.78l-.39-1.16-.39,1.16c-.12.37-.41.66-.78.78l-1.16.39,1.16.39c.37.12.66.41.78.78l.39,1.16Z"/>
    <path class="cls-1" d="m106.07,139.46l.39-1.16c.12-.37.41-.66.78-.78l1.16-.39-1.16-.39c-.37-.12-.66-.41-.78-.78l-.39-1.16-.39,1.16c-.12.37-.41.66-.78.78l-1.16.39,1.16.39c.37.12.66.41.78.78l.39,1.16Z"/>
    <path class="cls-1" d="m134.18,109.58l.39-1.16c.12-.37.41-.66.78-.78l1.16-.39-1.16-.39c-.37-.12-.66-.41-.78-.78l-.39-1.16-.39,1.16c-.12.37-.41.66-.78.78l-1.16.39,1.16.39c.37.12.66.41.78.78l.39,1.16Z"/>
    <path class="cls-1" d="m144,105.89l1.08-3.24c.34-1.03,1.15-1.84,2.18-2.18l3.24-1.08-3.24-1.08c-1.03-.34-1.84-1.15-2.18-2.18l-1.08-3.24-1.08,3.24c-.34,1.03-1.15,1.84-2.18,2.18l-3.24,1.08,3.24,1.08c1.03.34,1.84,1.15,2.18,2.18l1.08,3.24Z"/>
    <path class="cls-1" d="m94.85,131.29l1.08-3.24c.34-1.03,1.15-1.84,2.18-2.18l3.24-1.08-3.24-1.08c-1.03-.34-1.84-1.15-2.18-2.18l-1.08-3.24-1.08,3.24c-.34,1.03-1.15,1.84-2.18,2.18l-3.24,1.08,3.24,1.08c1.03.34,1.84,1.15,2.18,2.18l1.08,3.24Z"/>
    <path class="cls-1" d="m112.33,183.75l1.08-3.24c.34-1.03,1.15-1.84,2.18-2.18l3.24-1.08-3.24-1.08c-1.03-.34-1.84-1.15-2.18-2.18l-1.08-3.24-1.08,3.24c-.34,1.03-1.15,1.84-2.18,2.18l-3.24,1.08,3.24,1.08c1.03.34,1.84,1.15,2.18,2.18l1.08,3.24Z"/>
    <path class="cls-1" d="m203.57,152.27l-.59-1.78c-.19-.57-.63-1.01-1.2-1.2l-1.78-.59,1.78-.59c.57-.19,1.01-.63,1.2-1.2l.59-1.78.59,1.78c.19.57.63,1.01,1.2,1.2l1.78.59-1.78.59c-.57.19-1.01.63-1.2,1.2l-.59,1.78Z"/>
    <path class="cls-1" d="m166.46,171.08l-.39-1.16c-.12-.37-.41-.66-.78-.78l-1.16-.39,1.16-.39c.37-.12.66-.41.78-.78l.39-1.16.39,1.16c.12.37.41.66.78.78l1.16.39-1.16.39c-.37.12-.66.41-.78.78l-.39,1.16Z"/>
    <path class="cls-1" d="m181.63,139.46l-.39-1.16c-.12-.37-.41-.66-.78-.78l-1.16-.39,1.16-.39c.37-.12.66-.41.78-.78l.39-1.16.39,1.16c.12.37.41.66.78.78l1.16.39-1.16.39c-.37.12-.66.41-.78.78l-.39,1.16Z"/>
    <path class="cls-1" d="m153.53,109.58l-.39-1.16c-.12-.37-.41-.66-.78-.78l-1.16-.39,1.16-.39c.37-.12.66-.41.78-.78l.39-1.16.39,1.16c.12.37.41.66.78.78l1.16.39-1.16.39c-.37.12-.66.41-.78.78l-.39,1.16Z"/>
    <path class="cls-1" d="m192.86,131.29l-1.08-3.24c-.34-1.03-1.15-1.84-2.18-2.18l-3.24-1.08,3.24-1.08c1.03-.34,1.84-1.15,2.18-2.18l1.08-3.24,1.08,3.24c.34,1.03,1.15,1.84,2.18,2.18l3.24,1.08-3.24,1.08c-1.03.34-1.84,1.15-2.18,2.18l-1.08,3.24Z"/>
    <path class="cls-1" d="m175.37,183.75l-1.08-3.24c-.34-1.03-1.15-1.84-2.18-2.18l-3.24-1.08,3.24-1.08c1.03-.34,1.84-1.15,2.18-2.18l1.08-3.24,1.08,3.24c.34,1.03,1.15,1.84,2.18,2.18l3.24,1.08-3.24,1.08c-1.03.34-1.84,1.15-2.18,2.18l-1.08,3.24Z"/>
  </g>
</svg>