<?xml version="1.0" encoding="UTF-8"?>
<svg id="Layer_6" data-name="Layer 6" xmlns="http://www.w3.org/2000/svg" viewBox="0 0 288 288">
  <defs>
    <style>
      .cls-1 {
        fill: #fff;
      }

      .cls-2 {
        fill: #ffe4c0;
      }

      .cls-3 {
        fill: #ff4040;
      }

      .cls-4 {
        fill: #fa0;
      }
    </style>
  </defs>
  <circle cx="144" cy="144" r="54"/>
  <g>
    <path class="cls-4" d="m143.99,186.78c-.66.09-1.39-.3-1.39-1.16v-28.88l-16.41-14.58-1.09-5.02h-30.18c-1.56,0-1.56-2.42,0-2.42h29.66l-9.02-10.06,27.06-8.1v-30.46c0-.77.8-1.16,1.4-1.17v-2.94s-12.25.8-18.02,1.79c-5.76.99-15.01,9.33-18.49,12.52-3.48,3.2-6.96,8.55-9.14,18.09-2.19,9.54-5.76,16.9-5.76,21.27s3.58,18.49,4.57,22.26c.99,3.78,5.76,8.35,12.72,12.13,6.96,3.78,12.52,9.74,15.7,12.32s7.55,5.57,10.34,6.16c2.78.6,8.07.99,8.07.99v-2.75Zm-19.86-92.84c.68-.19,1.24.24,1.49.85,1.98,4.84,4.91,9.22,6.63,14.18.51,1.48-1.83,2.11-2.34.64-1.71-4.94-4.65-9.35-6.63-14.18-.25-.61.27-1.33.85-1.49Zm-17.62,20c5,3.25,9.94,6.6,14.56,10.39.51.42.43,1.29,0,1.71-.49.49-1.21.41-1.71,0-4.45-3.66-9.24-6.88-14.07-10.01-1.3-.85-.09-2.94,1.22-2.09Zm2.98,41.81c-.34-.59-.11-1.3.43-1.66,3.2-2.12,6.69-3.85,9.56-6.44.49-.44,1.23-.48,1.71,0,.45.45.49,1.27,0,1.71-3.03,2.73-6.68,4.57-10.05,6.82-.55.36-1.34.11-1.66-.43Zm21.31,3.45c-2.94,4.81-5.77,9.7-8.35,14.71-.71,1.39-2.8.16-2.09-1.22,2.58-5.01,5.41-9.9,8.35-14.71.81-1.33,2.91-.11,2.09,1.22Z"/>
    <path class="cls-3" d="m143.98,173.06h-9.3s-1.69.11-2.54-1.27-3.17-7.5-3.17-7.5c0,0-3.7-8.45-10.04-13.53s-8.14-9.19-7.4-12.26.53-13.53,3.06-16.06,3.49-3.8,3.49-3.8l6.02,4.33s-.74.42-.95,1.59-.63,5.71,1.48,8.03,4.65,4.33,7.93,3.7,4.44-1.59,4.44-1.59h6.97v38.36Z"/>
    <path class="cls-2" d="m143.98,104.37s-1.59.42-7.61-.85-9.4-2.01-13.74,3.59-4.54,11.52-4.54,11.52c0,0-.11,2.54,1.69,3.91s14.9,9.19,14.9,9.19c0,0,.63,2.96.85,5.39s.85,5.6.85,5.6l-1.48,1.37s-6.6.85-7.21,1.74-5.05,7.45-4.52,10.51,2.01,7.29,6.76,8.35c0,0,3.28-.21,8.03-1.06s6.02-.63,6.02-.63v-58.65Z"/>
    <path class="cls-3" d="m115.87,111.56s-3.17-9.62-5.07-11.2-11.2-3.59-11.2-3.59c0,0,.95,10.88,8.14,13.53,0,0,3.28,1.27,5.71,1.27h2.43Z"/>
    <path class="cls-2" d="m115.87,111.56s4.97-3.87,4.26-6.06-3.8-8.45-7.4-9.86-13.14,1.13-13.14,1.13l16.27,14.79Z"/>
    <path d="m143.98,142.56h-7.77c-.54,0-1.02.31-1.25.79-.16.35-.11.82-.11,1.46,0,2.54-.08,3.7.77,5.39.5.99.63,1.62,3.45,2.82s4.9,2.36,4.9,2.36v-12.82Z"/>
    <path class="cls-4" d="m144,189.53s5.29-.4,8.07-.99c2.78-.6,7.16-3.58,10.34-6.16s8.75-8.55,15.7-12.32c6.96-3.78,11.73-8.35,12.72-12.13.99-3.78,4.57-17.89,4.57-22.26,0-4.37-3.58-11.73-5.76-21.27-2.19-9.54-5.67-14.89-9.14-18.09-3.48-3.2-12.72-11.53-18.49-12.52s-18.01-1.79-18.01-1.79v2.94c.59,0,1.39.4,1.39,1.17v30.46s28.05,9.06,28.05,9.06l-10.01,9.1h29.66c1.56,0,1.56,2.42,0,2.42h-30.18s-1.09,5.02-1.09,5.02l-16.41,14.58v28.88c0,.86-.73,1.24-1.39,1.16v2.75Zm20.7-94.1c-1.98,4.83-4.91,9.24-6.63,14.18-.51,1.46-2.85.83-2.34-.64,1.72-4.96,4.65-9.34,6.63-14.18.25-.6.81-1.03,1.49-.85.57.16,1.1.88.85,1.49Zm18,20.6c-4.83,3.13-9.61,6.36-14.07,10.01-.51.41-1.22.49-1.71,0-.43-.43-.51-1.3,0-1.71,4.61-3.79,9.55-7.15,14.56-10.39,1.31-.85,2.53,1.25,1.22,2.09Zm-5.86,40.15c-3.38-2.24-7.02-4.08-10.05-6.82-.49-.44-.45-1.27,0-1.71.48-.48,1.23-.44,1.71,0,2.87,2.59,6.36,4.31,9.56,6.44.54.36.78,1.07.43,1.66-.32.54-1.11.8-1.66.43Zm-17.56,1.79c2.94,4.81,5.77,9.7,8.35,14.71.71,1.38-1.38,2.61-2.09,1.22-2.58-5.01-5.41-9.9-8.35-14.71-.81-1.33,1.28-2.55,2.09-1.22Z"/>
    <path class="cls-3" d="m144.02,173.06h9.3s1.69.11,2.54-1.27,3.17-7.5,3.17-7.5c0,0,3.7-8.45,10.04-13.53s8.14-9.19,7.4-12.26-.53-13.53-3.06-16.06-3.49-3.8-3.49-3.8l-6.02,4.33s.74.42.95,1.59.63,5.71-1.48,8.03-4.65,4.33-7.93,3.7-4.44-1.59-4.44-1.59h-6.97s0,38.36,0,38.36Z"/>
    <path class="cls-2" d="m144.02,104.37s1.59.42,7.61-.85c6.02-1.27,9.4-2.01,13.74,3.59,4.33,5.6,4.54,11.52,4.54,11.52,0,0,.11,2.54-1.69,3.91s-14.9,9.19-14.9,9.19c0,0-.63,2.96-.85,5.39s-.85,5.6-.85,5.6l1.48,1.37s6.6.85,7.21,1.74,5.05,7.45,4.52,10.51-2.01,7.29-6.76,8.35c0,0-3.28-.21-8.03-1.06s-6.02-.63-6.02-.63v-58.65Z"/>
    <path class="cls-3" d="m172.13,111.56s3.17-9.62,5.07-11.2,11.2-3.59,11.2-3.59c0,0-.95,10.88-8.14,13.53,0,0-3.28,1.27-5.71,1.27h-2.43Z"/>
    <path class="cls-2" d="m172.13,111.56s-4.97-3.87-4.26-6.06,3.8-8.45,7.4-9.86,13.14,1.13,13.14,1.13l-16.27,14.79Z"/>
    <path d="m144.02,142.56h7.77c.54,0,1.02.31,1.25.79.16.35.11.82.11,1.46,0,2.54.08,3.7-.77,5.39-.5.99-.63,1.62-3.45,2.82s-4.9,2.36-4.9,2.36v-12.82Z"/>
  </g>
  <path class="cls-1" d="m159.45,190.98l.59,1.78c.19.57.63,1.01,1.2,1.2l1.78.59-1.78.59c-.57.19-1.01.63-1.2,1.2l-.59,1.78-.59-1.78c-.19-.57-.63-1.01-1.2-1.2l-1.78-.59,1.78-.59c.57-.19,1.01-.63,1.2-1.2l.59-1.78Z"/>
  <path class="cls-1" d="m197.83,154.75l.39,1.16c.12.37.41.66.78.78l1.16.39-1.16.39c-.37.12-.66.41-.78.78l-.39,1.16-.39-1.16c-.12-.37-.41-.66-.78-.78l-1.16-.39,1.16-.39c.37-.12.66-.41.78-.78l.39-1.16Z"/>
  <path class="cls-1" d="m211.86,122.61l1.08,3.24c.34,1.03,1.15,1.84,2.18,2.18l3.24,1.08-3.24,1.08c-1.03.34-1.84,1.15-2.18,2.18l-1.08,3.24-1.08-3.24c-.34-1.03-1.15-1.84-2.18-2.18l-3.24-1.08,3.24-1.08c1.03-.34,1.84-1.15,2.18-2.18l1.08-3.24Z"/>
  <path class="cls-1" d="m188.23,179.64l1.08,3.24c.34,1.03,1.15,1.84,2.18,2.18l3.24,1.08-3.24,1.08c-1.03.34-1.84,1.15-2.18,2.18l-1.08,3.24-1.08-3.24c-.34-1.03-1.15-1.84-2.18-2.18l-3.24-1.08,3.24-1.08c1.03-.34,1.84-1.15,2.18-2.18l1.08-3.24Z"/>
  <path class="cls-1" d="m128.38,190.98l-.59,1.78c-.19.57-.63,1.01-1.2,1.2l-1.78.59,1.78.59c.57.19,1.01.63,1.2,1.2l.59,1.78.59-1.78c.19-.57.63-1.01,1.2-1.2l1.78-.59-1.78-.59c-.57-.19-1.01-.63-1.2-1.2l-.59-1.78Z"/>
  <path class="cls-1" d="m90,154.75l-.39,1.16c-.12.37-.41.66-.78.78l-1.16.39,1.16.39c.37.12.66.41.78.78l.39,1.16.39-1.16c.12-.37.41-.66.78-.78l1.16-.39-1.16-.39c-.37-.12-.66-.41-.78-.78l-.39-1.16Z"/>
  <path class="cls-1" d="m177.81,81.99l.39,1.16c.12.37.41.66.78.78l1.16.39-1.16.39c-.37.12-.66.41-.78.78l-.39,1.16-.39-1.16c-.12-.37-.41-.66-.78-.78l-1.16-.39,1.16-.39c.37-.12.66-.41.78-.78l.39-1.16Z"/>
  <path class="cls-1" d="m110.02,81.99l-.39,1.16c-.12.37-.41.66-.78.78l-1.16.39,1.16.39c.37.12.66.41.78.78l.39,1.16.39-1.16c.12-.37.41-.66.78-.78l1.16-.39-1.16-.39c-.37-.12-.66-.41-.78-.78l-.39-1.16Z"/>
  <path class="cls-1" d="m75.97,122.61l-1.08,3.24c-.34,1.03-1.15,1.84-2.18,2.18l-3.24,1.08,3.24,1.08c1.03.34,1.84,1.15,2.18,2.18l1.08,3.24,1.08-3.24c.34-1.03,1.15-1.84,2.18-2.18l3.24-1.08-3.24-1.08c-1.03-.34-1.84-1.15-2.18-2.18l-1.08-3.24Z"/>
  <path class="cls-1" d="m99.6,179.64l-1.08,3.24c-.34,1.03-1.15,1.84-2.18,2.18l-3.24,1.08,3.24,1.08c1.03.34,1.84,1.15,2.18,2.18l1.08,3.24,1.08-3.24c.34-1.03,1.15-1.84,2.18-2.18l3.24-1.08-3.24-1.08c-1.03-.34-1.84-1.15-2.18-2.18l-1.08-3.24Z"/>
</svg>