<?xml version="1.0" encoding="UTF-8"?>
<svg id="Layer_8" data-name="Layer 8" xmlns="http://www.w3.org/2000/svg" viewBox="0 0 288 288">
  <defs>
    <style>
      .cls-1 {
        fill: #fff;
      }

      .cls-2 {
        fill: #ffe4c0;
      }

      .cls-3 {
        fill: #ff4040;
      }

      .cls-4 {
        fill: #fa0;
      }
    </style>
  </defs>
  <circle cx="144" cy="144" r="54"/>
  <g>
    <path class="cls-3" d="m145.3,134.66s1,2.62,2.08,2.83c1.89.37,2.65-5.47,2.65-5.47,0,0-1.47,2.8-1.88,3.12s-1.1.33-1.47.09-1.38-.57-1.38-.57Z"/>
    <path class="cls-2" d="m87,80.39l5.25,2.93s2.93-.37,4.77.86,3.67,2.57,7.82,2.93,16.99,1.71,20.29,1.71,12.27-1.67,13.05-1.44,2.93,1.6,3.85,3.02,1.92,3.3,1.92,3.3c0,0-8.39.32-8.89.32s-.96.27-.64.37,10.22.05,12.19,0,5.77-.82,7.29-.37,11.32,7.56,11.32,7.56l4.72,3.44,4.31,4.54s-1.65,2.61-4.49,2.11-9.03-5.32-9.03-5.32c0,0-6.69-1.83-7.61-2.38s-3.57-1.28-3.57-1.28c0,0-16.77,4.58-21.45,4.58s-5.87.09-5.87.09c0,0,1.19.46,1.99.58s1.65.18,1.65.18c0,0-9.65,1.96-12.59,2.38s-7.45.86-10.94-.24-10.94-5.5-11.73-5.99-2.92-1.59-2.92-1.59c0,0-3.31-7.76-3.31-12.89s2.63-9.41,2.63-9.41Z"/>
    <path class="cls-2" d="m159.99,106.91s1.65,4.12,2.02,5.59.73,10.91.82,11.92.64,4.12-.92,3.57-4.49-.92-5.5-4.31-.37-5.5-.37-5.5c0,0-1.88-2.06-2.34-4.63s-1.51-4.4-.87-5.36,1.51-1.28,1.51-1.28c0,0-1.5.37-1.71.82s-.3.69-.3.69c0,0-3.9-.92-4.77-1.51s-3.62-2.34-3.62-2.34c0,0,3.57-.87,4.58-1.05s2.43-.09,3.71.55,6.46,2.34,6.69,2.43,1.05.41,1.05.41Z"/>
    <path class="cls-2" d="m137.63,106.36s2.43-.96,3.71-1.24c1.28-.27,2.06-.5,2.84,0s2.47,1.92,3.39,2.29c.92.37,4.35,1.37,4.35,1.37,0,0,.64,3.53,1.05,4.45s1.28,1.74,1.05,3.9-3.8,12.28-3.85,13.84c-.05,1.56-1.24,4.26-2.15,4.58s-3.67-.92-3.71-2.43c-.05-1.51,1.24-7.47,1.24-7.84s-.46-6.74-.18-8.34c.27-1.6.48-3.57.48-3.57,0,0,1.17-.18,1.45-.82.27-.64.64-1.79.64-1.79,0,0-.92,1.37-1.37,1.65-.46.27-.71.09-.71.09,0,0-3.36-2.25-3.96-3.8l-.6-1.56s.73-.14,1.28-.5c.55-.37.6-.6.6-.6,0,0-1.6.6-2.2.6s-3.35-.27-3.35-.27Z"/>
    <path class="cls-2" d="m133.69,107.28s-6.72,2.44-11,2.93-11.43,1.41-13.38,1.53-2.99,0-2.99,0c0,0,3.24,3.49,6.42,4s9.47,2.04,11,2.65,7.33,6.72,8.8,7.52,2.69.67,2.69.67l-1.47.73s3.42,2.99,4.34,3.73,3.48,2.51,4.34,2.75l.86.24s-.24-.37,0-2.51,1.47-5.01.92-6.11-2.87-3.06-4.09-3.91-1.59.98-1.59.98c0,0,.43-1.56-.3-2.28s-7.21-7.5-7.21-7.5c0,0-2.63,2.64-3.61,3.03l-.98.39s2.44-1.89,3.61-3.67,1.47-2.81,2.26-3.67,1.41-1.53,1.41-1.53Z"/>
    <path class="cls-3" d="m169.94,105.03s-.02,2.67,2.25,3.83,4.58,1.41,4.28.67-2.99-2.81-4.22-3.42-2.31-1.08-2.31-1.08Z"/>
    <path class="cls-3" d="m162.62,120.48s.9,3.57.99,4.76.73,4.36-.23,3.57-1.24-1.1-1.65-3.16-.5-4.81,0-5.18.89,0,.89,0Z"/>
    <path class="cls-4" d="m170.62,163.32c0-.06.02-.13.03-.19h-23.96c-.27.48-.54.97-.79,1.47h24.73c-.03-.22-.06-.43-.07-.65-.01-.21.02-.42.05-.62Z"/>
    <path class="cls-4" d="m153.86,196.86h33.58s-6.65,9.35-16.79,9.35-16.79-9.35-16.79-9.35Z"/>
    <polygon class="cls-2" points="170.65 166 154.49 196 157.33 196 170.65 166"/>
    <polygon class="cls-2" points="170.65 166 186.81 196 183.97 196 170.65 166"/>
    <circle class="cls-4" cx="174.95" cy="163.86" r="2.15"/>
    <polygon class="cls-3" points="144.86 163.13 144.86 137.26 144.47 134.96 144.18 134.04 144.07 134.77 144.07 164.59 144.86 163.13"/>
    <path class="cls-4" d="m117.44,163.32c0-.06-.02-.13-.03-.19h23.96c.27.48.54.97.79,1.47h-24.73c.03-.22.06-.43.07-.65.01-.21-.02-.42-.05-.62Z"/>
    <path class="cls-4" d="m134.2,196.86h-33.58s6.65,9.35,16.79,9.35,16.79-9.35,16.79-9.35Z"/>
    <polygon class="cls-2" points="117.41 166 133.57 196 130.73 196 117.41 166"/>
    <polygon class="cls-2" points="117.41 166 101.25 196 104.1 196 117.41 166"/>
    <circle class="cls-4" cx="113.11" cy="163.86" r="2.15"/>
    <polygon class="cls-3" points="143.25 163.13 143.25 137.26 143.65 134.96 143.93 134.04 144.05 134.77 144.05 164.59 143.25 163.13"/>
  </g>
  <g>
    <path class="cls-1" d="m163.28,82.04l.59-1.78c.19-.57.63-1.01,1.2-1.2l1.78-.59-1.78-.59c-.57-.19-1.01-.63-1.2-1.2l-.59-1.78-.59,1.78c-.19.57-.63,1.01-1.2,1.2l-1.78.59,1.78.59c.57.19,1.01.63,1.2,1.2l.59,1.78Z"/>
    <path class="cls-1" d="m159.71,153.27l.59-1.78c.19-.57.63-1.01,1.2-1.2l1.78-.59-1.78-.59c-.57-.19-1.01-.63-1.2-1.2l-.59-1.78-.59,1.78c-.19.57-.63,1.01-1.2,1.2l-1.78.59,1.78.59c.57.19,1.01.63,1.2,1.2l.59,1.78Z"/>
    <path class="cls-1" d="m90,167.83l.59-1.78c.19-.57.63-1.01,1.2-1.2l1.78-.59-1.78-.59c-.57-.19-1.01-.63-1.2-1.2l-.59-1.78-.59,1.78c-.19.57-.63,1.01-1.2,1.2l-1.78.59,1.78.59c.57.19,1.01.63,1.2,1.2l.59,1.78Z"/>
    <path class="cls-1" d="m129.71,147.97l.59-1.78c.19-.57.63-1.01,1.2-1.2l1.78-.59-1.78-.59c-.57-.19-1.01-.63-1.2-1.2l-.59-1.78-.59,1.78c-.19.57-.63,1.01-1.2,1.2l-1.78.59,1.78.59c.57.19,1.01.63,1.2,1.2l.59,1.78Z"/>
    <path class="cls-1" d="m178.25,138.14l.39-1.16c.12-.37.41-.66.78-.78l1.16-.39-1.16-.39c-.37-.12-.66-.41-.78-.78l-.39-1.16-.39,1.16c-.12.37-.41.66-.78.78l-1.16.39,1.16.39c.37.12.66.41.78.78l.39,1.16Z"/>
    <path class="cls-1" d="m95.98,155.59l.39-1.16c.12-.37.41-.66.78-.78l1.16-.39-1.16-.39c-.37-.12-.66-.41-.78-.78l-.39-1.16-.39,1.16c-.12.37-.41.66-.78.78l-1.16.39,1.16.39c.37.12.66.41.78.78l.39,1.16Z"/>
    <path class="cls-1" d="m195.27,164.26l1.08-3.24c.34-1.03,1.15-1.84,2.18-2.18l3.24-1.08-3.24-1.08c-1.03-.34-1.84-1.15-2.18-2.18l-1.08-3.24-1.08,3.24c-.34,1.03-1.15,1.84-2.18,2.18l-3.24,1.08,3.24,1.08c1.03.34,1.84,1.15,2.18,2.18l1.08,3.24Z"/>
    <path class="cls-1" d="m144.04,194.59l1.08-3.24c.34-1.03,1.15-1.84,2.18-2.18l3.24-1.08-3.24-1.08c-1.03-.34-1.84-1.15-2.18-2.18l-1.08-3.24-1.08,3.24c-.34,1.03-1.15,1.84-2.18,2.18l-3.24,1.08,3.24,1.08c1.03.34,1.84,1.15,2.18,2.18l1.08,3.24Z"/>
    <path class="cls-1" d="m112.13,138.36l1.08-3.24c.34-1.03,1.15-1.84,2.18-2.18l3.24-1.08-3.24-1.08c-1.03-.34-1.84-1.15-2.18-2.18l-1.08-3.24-1.08,3.24c-.34,1.03-1.15,1.84-2.18,2.18l-3.24,1.08,3.24,1.08c1.03.34,1.84,1.15,2.18,2.18l1.08,3.24Z"/>
  </g>
</svg>