<?xml version="1.0" encoding="UTF-8"?>
<svg id="Layer_14" data-name="Layer 14" xmlns="http://www.w3.org/2000/svg" viewBox="0 0 288 288">
  <defs>
    <style>
      .cls-1 {
        fill: #fff;
      }

      .cls-2 {
        fill: #ffe4c0;
      }

      .cls-3 {
        fill: #ff4040;
      }

      .cls-4 {
        fill: #fa0;
      }
    </style>
  </defs>
  <circle cx="144" cy="144" r="54"/>
  <path class="cls-2" d="m126.36,127.92s-1.69-.33-2.35.28-.84,1.31-.84,1.31l-.09,3.24s1.08-1.01,1.44-1.85c.15-.34,1.82-2.2,1.85-2.48s0-.51,0-.51Z"/>
  <g>
    <path class="cls-4" d="m136.51,126.89l-1.36,1.09c-.33.31-1.59,1.49-2.16,2.49,0,0-4.26-.19-5.33.09-1.22.32-3.63,1.11-4.93,3.21s-1.99,5.17.42,8.22c.94,1.19,2.75,1.79,2.75,1.79l-.61,7.08s-3.65-.82-5.54-3.59c-1.54-2.26-2.31-4.15-2.43-8.1,0,0,0-4.15,1.09-6.25,1-1.93,2.24-4.53,6.01-6,4.65-1.81,12.09-.04,12.09-.04Z"/>
    <path class="cls-2" d="m147.22,192.55c-2.52.63-4.68,1.21-7.1,2.31-.56.25-1.62.67-2.12,1.03-.56.4-1.39,1.09-1.39,1.09.08.31.15.62.22.93.02.1.12.86.21.89,0,0,8.17,2.94,12.42,2.49,4.25-.45,9.84-3.24,9.84-3.24l-2.63-8.96c-2.94,1.66-6.25,2.66-9.45,3.46Z"/>
    <path class="cls-2" d="m127.38,165.21s.53.89,1.68,2.29c1.78,2.17,4.64,3.94,4.64,3.94l-1.34-.28c-.89-.42-2.52-1.26-2.52-1.26l1.86,6.43,4.11,17.24c1.44-.89,2.5-1.73,4.03-2.55,2.12-1.13,4.72-1.64,7.01-2.37,3.06-.99,7.11-2.62,7.95-6.23l-1.82-6.09s-.42-.3-1.73,0-2.57.89-2.57.89c0,0,4-1.9,6.1-4.08.33-.35,1.27-1.09,1.87-1.85-2.46-.64-4.67-1.23-6.77-2.68-.82-.57-1.65-1.07-2.46-1.66-.37-.27-4.52-3.42-4.68-3.22,0,0-1.72,2.17-1.72,2.17,0,0,.42-1.48,1.01-2.76-.63-.44-1.28-.83-2.03-1.1-1.66-.61-3.44-.92-5.18-1.21-.48-.08-5.72-.88-7.17,1.86,0,0-.37.53-.43,1.15s.18,1.37.18,1.37Z"/>
    <path class="cls-2" d="m169.2,145.52c-1.17-3.47-9.87-7.24-10.8-7.78-.71-.41-6.56-4.81-8.45-4.81-1.29,0-9.62,4.31-10.29,4.81-.67.5-2.8,7.83-2.8,7.83l.28.39c.28.39.5,1.51.28,2.41-.22.9-1.12,2.46-1.12,2.46,0,0,.95.06,1.9-.5.95-.56,3.08-2.96,3.75-3.36.67-.39,2.06-4.02,2.06-4.02,0,0,2.41.39,3.92,0,1.51-.39,3.24-1.12,3.24-1.12,0,0-.56.62,1.79,1.9,2.35,1.29,6.38,1.73,6.38,1.73,0,0-1.9.14-3.08.08s-3.38-1.2-3.02.42c.52,2.32,1.09,2.42,2.52,3.64.72.62,3.86,2.13,3.86,2.13,0,0-.25.21-1.29-.06-1.8-.45-3.47-1.79-3.47-1.79,0,0-.84,1.48-1.46,2.35-.5.69-1.57,2.52-3.77,4.13-.34.25-1.58,1.3-2.01,1.71,0,0,2.43,1.39,2.71,1.57,1.48.94,2.98,1.77,4.56,2.54.16.08.32.15.47.22.87.4,1.81.59,2.74.81.43.1,1.7.1,2.13.06,1.4-.14,1.85.15,2.47-1.44.57-1.46,1.37-3.38,2.03-4.8.92-2,1.84-4,2.8-5.98.19-.4.39-.79.59-1.18,1.4-2.68,1.06-4.36,1.06-4.36Z"/>
    <path class="cls-2" d="m134.71,153.1c2.76.35,5.2,1.15,7.66,2.43,1.33.69,2.76,1.29,4.12,1.92l.43-.07c.38-.41.74-1.01.94-1.49.6-1.47,1.36-4.61.52-7.07-1.04-3.06-3.53-3.04-4.56-2.89-.27.04-.51.17-.69.38-.23.26-.63.72-1.24,1.39-1.06,1.17-3.05,2.6-3.55,3.05s-3.15.76-3.85.81.71-3.86,1.38-5.36c.85-1.89,1.89-4.52,1.71-5.24-.26-1.1-1.82-.3-2.45.15-.3.21-.6.41-.92.59l-1.23.8v-2.74c.02-.3-.15-.58-.42-.7-.45-.2-1.68.03-2.94-.26-1.61-.36-3-.28-3-.28,0,0-.56,10.63-.84,12.87-.06.47-.09,1.63-.04,2.63,2.82-1.07,6.29-1.26,8.96-.92Z"/>
    <path class="cls-2" d="m135.56,138.17s.1,1.97.6,1.81c2.29-.73,2.74-2.52,4.03-3.08,1.29-.56.28-.98,0-1.23s-1.06-.14-1.06-.14c0,0-1.65,1.02-2.38,1.57s-1.19,1.07-1.19,1.07Z"/>
    <path class="cls-2" d="m133.38,138.17c-1.38.66-4.75-.08-4.75-.08l3.67-5.94s2.29-4.04,4.81-5.05,11.5-3.78,13.76-3.73c2.27.04,2.48-.38,4.11,1.51s3.73,5.08,4.74,6.8c1.01,1.72,5.62,9.1,5.62,9.1,0,0-5.03-2.31-7.64-3.94-2.6-1.64-7.51-5.03-7.76-5.16s-2.64,1.22-4.61,1.26c-1.97.04-3.86-.25-3.86-.25,0,0-2.39,2.48-4.7,3.86-2.31,1.38-3.4,1.63-3.4,1.63Z"/>
    <path class="cls-4" d="m167.6,152.23s1.76,1.68,2.49,3.41,1.43,5.76-.31,8.95c-1.73,3.19-5.29,5.01-8.08,5.73s-6.32,1.01-11.47-2.41c-5.15-3.41-10.01-7.19-14.94-7.8s-7.1.39-8.29,2.56c-1.1,2.01-.43,4.46.47,5.29.89.84,1.97,1.94,1.97,1.94l1.51,5.83s-2.47.52-5.83-2.44c-3.36-2.96-5.71-9.65-3.82-13.97,1.69-3.88,4.8-5.3,8.68-5.62,4.19-.34,8.31.52,12.17,2.03,3.56,1.39,7.98,4.07,11.08,6.32,7.16,5.2,11.61,1.62,11.61,1.62,0,0,2.32-2.67,1.79-5.17l-.35-2.03s-.08-1.2.42-2.48.91-1.76.91-1.76Z"/>
    <path class="cls-3" d="m136.86,145.58s-2.96,5.73-2.27,5.84,1.71-.58,1.71-.58c0,0,1.61-2.46,1.82-3.13s-.13-1.99-.55-2.13-.71,0-.71,0Z"/>
    <path class="cls-4" d="m158.11,172.3c-.83-.1-1.64.06-2.33.64-.78.67-1.35,1.68-1.67,2.65-.26.77-.26.96-.35,1.77.29.48,2.53,5.04,1.27,7.05-1.47,2.35-7.54,4.7-10.56,5.28-2.53.49-9.78,3.24-12.14,9.48-1.93,5.12-.36,8.6-.36,8.6,0,0,.02-1.56.36-4.36.5-4.14,4.48-7.92,8.22-9.44,3.73-1.51,7.39-1.93,10.87-3.19,5.69-2.07,7.71-4.21,8.6-6.17.9-1.96,1.9-5.83,0-9.19-.77-1.35-1.23-2.59-1.92-3.13Z"/>
    <path class="cls-3" d="m127.06,137.9c.47-.64.94-1.27,1.42-1.89.84-1.1,1.44-1.84,2.44-2.81.42-.41.91-.72,1.39-1.05,0,0,.87.17.64,1.43s-1.03,2.68-2.27,3.5c-1.1.73-1.83,1.2-3.24,1.08-.17-.02-.35-.07-.38-.25Z"/>
    <path class="cls-2" d="m133.15,119.22s-.02,1.03,1.66,1.72,6.98.45,8.55-.08c.67-.23,1.67-.6,2.13-.65.59-.07,1.16-.05,1.69.23l2.15,1.16,1.47,1s1.76-.16,3.23.51c1.48.67,6.68,9.05,6.68,9.05,0,0,.31-12.76-.02-12.89s-.16-1.17-4.47-3.02c-4.31-1.85-9.52-3.44-10.49-3.55s-2.03-.22-3.88.39c-1.85.62-3.55,1.69-3.55,1.69l-5.14,4.45Z"/>
    <path class="cls-3" d="m138.29,114.77s-3.52.78-5.58,2.03c-1.76,1.07-2.5,1.65-1.55,2.26.41.27,1.8.61,3.06.51,1.4-.11,3.28-1.42,3.8-2.01.73-.84.27-2.79.27-2.79Z"/>
    <path class="cls-3" d="m150.39,102.46s-1.01-2.79-2.52-4.89-1.89-1.68-2.29-1.11-.57,3.65-.57,3.65c0,0,.34-2.31,1.38-2.22s3.99,4.57,3.99,4.57Z"/>
    <path class="cls-2" d="m155.03,112.6s-.15-2.09-2.27-6.01c-2.11-3.9-4.84-8.28-5.77-8.64s-1.35.09-1.78,1.36c-.49,1.47-.38,3.8.17,5.9s1.16,3.09,1.3,3.5c.11.32.32.83.32.83,0,0,1.52.25,4.08,1.17s3.96,1.9,3.96,1.9Z"/>
    <path class="cls-2" d="m129.42,125.78s1.76-3.75,2.35-4.57c.3-.42.84-1.01.84-1.01,0,0-1.34,2.14-1.05,2.56.3.43,1.29.43,1.74.49.85.11,1.74.17,2.6.06.67-.09,1.42-.16,2.04-.44.55-.25.82-.26.82-.26,0,0,.08.03,0,1.33s-.31,2.13-.32,2.14c-.02.05-.3.2-.36.23-.19.11-.4.18-.62.21-.62.08-1.39.06-2-.07-.45-.1-.88-.3-1.33-.41-1.45-.35-4.7-.26-4.7-.26Z"/>
    <path class="cls-2" d="m140.2,121.73c-.41-.04-.76.27-.9.65-.05.13-.06.41-.06.41-.18.82-.3,3.16-.3,3.16,0,0,4.56-1.29,5.34-1.55s2.62-.61,2.93-1.04c.36-.49.68-1.4.54-1.8s-1.52-.95-1.88-.9-1.6.5-2.35.75c-.54.18-2.41.42-3.31.33Z"/>
    <path class="cls-2" d="m148.38,121.82s-.1.52-.25.86,0,.68,0,.68c0,0,.88-.39,1.45-.45l.57-.06s-.46-.48-.9-.76-.86-.27-.86-.27Z"/>
    <path class="cls-3" d="m122.82,140.37s-.39-2.42,1.03-4.21c1.3-1.64,3.46-2.36,4.78-2.41,1.31-.06,1.49-.15,1.88-.65s1.59-1.15,1.85-1.62.45-.76.45-.76c-1.14-.03-2.29-.05-3.43-.03-1.77.03-3.55.78-4.92,1.89-1.36,1.1-2.27,2.35-2.37,4.13-.14,2.41.73,3.66.73,3.66Z"/>
    <path class="cls-3" d="m157.3,163.64s3.15.42,4.93-.23,2.27-1.93,2.29-3.38,0-1.34,0-1.34c0,0,.38-1.07.69-1.38s.9-.25.9-.25c0,0,.36.88.29,1.91s-.15,2.98-1.57,4.05c-1.43,1.07-1.38,1.09-2.16,1.32s-2.56.36-3.57.1-1.8-.8-1.8-.8Z"/>
    <path class="cls-3" d="m128.81,168.47s-.52-1.24-.88-1.93-1.01-1.41-1.01-1.41c0,0-.2,1.32.28,1.95s1.07.8,1.42,1.38l.36.59-.17-.59Z"/>
    <path class="cls-4" d="m138.79,113.72s-2.89-2.43-3.31-3.19-2.27-2.98-2.98-6.63.34-7.13,1.38-8.94,3.15-5.03,3.27-5.03.17-2.27.55-2.98,1.72-2.68,1.72-2.68l.25,1.26s2.06-1.8,2.48-2.56.42-1.09.42-1.09c0,0-.76-.34-1.01-.25s.38-.29,1.34-1.09c.96-.8,1.76-1.68,3.19-1.93s2.94,1.47,3.02,2.14.13,2.73-.38,3.9-.67,1.85-.67,1.85c0,0-.13-.88-.63-.76s-1.13.84-1.51,1.68-.59,2.01-.59,2.01l.96.04s-1.3,2.22-3.02,2.64c-1.72.42-2.68.38-3.78,3.31-1.09,2.94-1.1,5.37-1.07,6.46s.49,3.27,2.58,5.41c2.1,2.14,7.72,3.1,8.56,3.44s6.84,2.56,9.48,4.66c2.64,2.1,5.45,3.65,7.47,9.27s-.96,9.94-.96,9.94l-1.97,1.55s-2.73-2.18-2.06-4.95.92-1.26,1.17-3.19-.25-2.68-.67-3.36-.8-.92-.8-.92l-.04-4.49s-.38-.88-2.43-2.31-9.02-3.82-9.02-3.82c0,0-4.62-1.3-5.41-1.3s-1.26.21-2.01.46-3.53,1.43-3.53,1.43Z"/>
    <path class="cls-3" d="m161.47,124.73s.57.63.71,1.49.31,1.97,0,2.68-.52.96-.52.96l-.19-5.14Z"/>
    <path class="cls-3" d="m141.82,82.15c-.2-.2-.82.12-1.15.36-.23.16-.86.61-.9,1.36,0,.08-.03.7.25.82.41.18,1.24-.8,1.64-1.66.13-.27.33-.72.17-.88Z"/>
    <path class="cls-3" d="m147.37,86.26c-.3-.06-.63.48-.88.88-.29.48-.94,1.54-.65,1.82.21.21.86-.07,1.24-.4.59-.5.85-1.37.59-1.97-.04-.1-.13-.3-.29-.34Z"/>
  </g>
  <path class="cls-1" d="m171.97,180.5l.39-1.16c.12-.37.41-.66.78-.78l1.16-.39-1.16-.39c-.37-.12-.66-.41-.78-.78l-.39-1.16-.39,1.16c-.12.37-.41.66-.78.78l-1.16.39,1.16.39c.37.12.66.41.78.78l.39,1.16Z"/>
  <g>
    <path class="cls-1" d="m179.84,123.96l.59-1.78c.19-.57.63-1.01,1.2-1.2l1.78-.59-1.78-.59c-.57-.19-1.01-.63-1.2-1.2l-.59-1.78-.59,1.78c-.19.57-.63,1.01-1.2,1.2l-1.78.59,1.78.59c.57.19,1.01.63,1.2,1.2l.59,1.78Z"/>
    <path class="cls-1" d="m162.42,81.91l.39-1.16c.12-.37.41-.66.78-.78l1.16-.39-1.16-.39c-.37-.12-.66-.41-.78-.78l-.39-1.16-.39,1.16c-.12.37-.41.66-.78.78l-1.16.39,1.16.39c.37.12.66.41.78.78l.39,1.16Z"/>
    <path class="cls-1" d="m106.59,157.94l.39-1.16c.12-.37.41-.66.78-.78l1.16-.39-1.16-.39c-.37-.12-.66-.41-.78-.78l-.39-1.16-.39,1.16c-.12.37-.41.66-.78.78l-1.16.39,1.16.39c.37.12.66.41.78.78l.39,1.16Z"/>
    <path class="cls-1" d="m97.39,147.18l.39-1.16c.12-.37.41-.66.78-.78l1.16-.39-1.16-.39c-.37-.12-.66-.41-.78-.78l-.39-1.16-.39,1.16c-.12.37-.41.66-.78.78l-1.16.39,1.16.39c.37.12.66.41.78.78l.39,1.16Z"/>
    <path class="cls-1" d="m111.82,106.15l1.08-3.24c.34-1.03,1.15-1.84,2.18-2.18l3.24-1.08-3.24-1.08c-1.03-.34-1.84-1.15-2.18-2.18l-1.08-3.24-1.08,3.24c-.34,1.03-1.15,1.84-2.18,2.18l-3.24,1.08,3.24,1.08c1.03.34,1.84,1.15,2.18,2.18l1.08,3.24Z"/>
    <path class="cls-1" d="m194.61,153.68l1.08-3.24c.34-1.03,1.15-1.84,2.18-2.18l3.24-1.08-3.24-1.08c-1.03-.34-1.84-1.15-2.18-2.18l-1.08-3.24-1.08,3.24c-.34,1.03-1.15,1.84-2.18,2.18l-3.24,1.08,3.24,1.08c1.03.34,1.84,1.15,2.18,2.18l1.08,3.24Z"/>
    <path class="cls-1" d="m102.42,195.36l1.08-3.24c.34-1.03,1.15-1.84,2.18-2.18l3.24-1.08-3.24-1.08c-1.03-.34-1.84-1.15-2.18-2.18l-1.08-3.24-1.08,3.24c-.34,1.03-1.15,1.84-2.18,2.18l-3.24,1.08,3.24,1.08c1.03.34,1.84,1.15,2.18,2.18l1.08,3.24Z"/>
  </g>
</svg>