<?xml version="1.0" encoding="UTF-8"?>
<svg id="Layer_13" data-name="Layer 13" xmlns="http://www.w3.org/2000/svg" viewBox="0 0 288 288">
  <defs>
    <style>
      .cls-1 {
        fill: #fff;
      }

      .cls-2 {
        fill: #ffe4c0;
      }

      .cls-3 {
        fill: #ff4040;
      }

      .cls-4 {
        fill: #fa0;
      }
    </style>
  </defs>
  <circle cx="144" cy="144" r="54"/>
  <g>
    <g>
      <path class="cls-4" d="m186.04,121.23s-.05,2.93-1.49,4.53c-1.44,1.6-1.5.53-3.37,1.28-1.87.75-.8,1.76-2.24,3.21-1.44,1.44-3.05.21-5.06.48-2.01.27-1.89,2.14-3.65,3.9-1.76,1.76-2.62,1.02-4.33,1.71s-1.66,1.98-1.66,1.98c0,0-.21.96-.11,1.6.11.64.69,5.51.11,7.75-.59,2.24-1.76,3.58-1.76,3.58l7.66-4.61c-.11-.19-.15-.42-.1-.68.85-4.23,1.42-8.53,2.46-12.72.3-1.22,2.19-.7,1.88.52-.95,3.85-1.52,7.79-2.27,11.69l5.02-3.02c1.11-3.97,1.98-8.01,2.95-12.02.3-1.22,2.18-.7,1.88.52-.8,3.33-1.54,6.68-2.4,9.99,2.08-1.46,5.41-4.35,6.86-8.6,2.19-6.41-.38-11.1-.38-11.1Z"/>
      <path class="cls-4" d="m178.26,104.06s-.32-1.47-7.22-9.89c-6.89-8.42-16.19-7.05-16.19-7.05,0,0-.88,5.21,3.77,10.34,4.65,5.13,6.63,4.28,6.63,4.28,0,0-6.44.29-10.46,2.14-4.02,1.84-5.79,6.65-5.79,6.65,0,0,5.77,3.69,13.07,2.65,7.3-1.04,16.19-9.11,16.19-9.11Z"/>
      <path class="cls-3" d="m162.47,151.26s3.45-.32,7.62,2.08c4.17,2.41,8.5,7.38,8.5,7.38,0,0,2.24,6.01.4,9.62-1.84,3.61-6.49,11.14-6.49,11.14,0,0,15.23-4.09,23.09-15.55,7.86-11.46,9.46-20.12,8.34-31.51s-6.17-17.48-9.86-21.65c-3.69-4.17-11.22-9.3-15.15-10.5s-9.62,0-9.62,0c.94-.2,2.65.66,3.5,1.01,1.28.53,2.51,1.2,3.64,2,3.35,2.36,5.65,5.78,7.34,9.47,2.14,4.67,3.57,10.1,2.66,15.24-.57,3.23-2.37,5.96-4.72,8.2-4.97,4.73-19.24,13.07-19.24,13.07Z"/>
      <path class="cls-4" d="m173.87,158.45l7.28-9.6s1.76-1.2,4.33,0,2.08,4.01,2.08,4.01c0,0,2.08.4,3.05,2,.96,1.6.64,3.59.64,3.59,0,0,1.04,1.14,1.04,3.15s-1.12,3.53-1.12,3.53c0,0,.4,2.89-.48,4.49s-3.21,1.68-3.21,1.68l-11.38-3.05-2.23-9.8Z"/>
      <path class="cls-2" d="m177.7,162.4c-.56-1.76-9.54-8.5-9.94-8.82s-2.65-1.36-5.29-1.28-4.97.56-13.39,5.69c-1.09.66-8.19,4.5-8.03,6.89.01.18.06.35.16.5,1.08,1.74,3.15,2.61,4.83,3.65.65.41,2.24,1.01,2.39,1.86.16.88.72.72-2.57,3.21-.83.63-3.72,2.65-2.52,3.93.19.2.45.33.7.45,3.33,1.55,6.91,2.5,10.51,3.2,3.41.66,6.97,1.57,10.44,1.75,3.36.17,5.34-1.43,6.79-4.36,1.87-3.78,3.78-7.56,5.58-11.38.72-1.52.88-3.53.32-5.29Zm-13.64,11.67c-.47-.25-.6-.89-.35-1.34.87-1.52,1.65-3.08,2.62-4.54.3-.46.85-.61,1.34-.35.45.24.63.91.35,1.34-.97,1.46-1.75,3.02-2.62,4.54-.27.47-.87.6-1.34.35Zm1.28,4.17c-.49-.29-.57-.86-.35-1.34,1.51-3.36,3.58-6.42,5.29-9.67.59-1.11,2.27-.13,1.69.99-1.71,3.25-3.79,6.31-5.29,9.67-.22.48-.92.59-1.34.35Zm9.83-9.3c-.21.93-.77,1.69-1.25,2.5-.55.92-1.05,1.88-1.56,2.82-.53.95-1.04,1.91-1.54,2.88-.44.85-.73,1.79-1.2,2.62-.62,1.1-2.31.11-1.69-.99.47-.83.77-1.77,1.2-2.62.46-.91.95-1.81,1.44-2.7.49-.89.98-1.79,1.48-2.68.43-.77,1.04-1.48,1.23-2.35.27-1.23,2.16-.71,1.88.52Z"/>
    </g>
    <g>
      <path class="cls-4" d="m101.86,167.05s.05-2.93,1.49-4.53c1.44-1.6,1.5-.53,3.37-1.28,1.87-.75.8-1.76,2.24-3.21,1.44-1.44,3.05-.21,5.06-.48,2.01-.27,1.89-2.14,3.65-3.9,1.76-1.76,2.62-1.02,4.33-1.71s1.66-1.98,1.66-1.98c0,0,.21-.96.11-1.6-.11-.64-.69-5.51-.11-7.75.59-2.24,1.76-3.58,1.76-3.58l-7.66,4.61c.11.19.15.42.1.68-.85,4.23-1.42,8.53-2.46,12.72-.3,1.22-2.19.7-1.88-.52.95-3.85,1.52-7.79,2.27-11.69l-5.02,3.02c-1.11,3.97-1.98,8.01-2.95,12.02-.3,1.22-2.18.7-1.88-.52.8-3.33,1.54-6.68,2.4-9.99-2.08,1.46-5.41,4.35-6.86,8.6-2.19,6.41.38,11.1.38,11.1Z"/>
      <path class="cls-4" d="m109.63,184.22s.32,1.47,7.22,9.89c6.89,8.42,16.19,7.05,16.19,7.05,0,0,.88-5.21-3.77-10.34s-6.63-4.28-6.63-4.28c0,0,6.44-.29,10.46-2.14,4.02-1.84,5.79-6.65,5.79-6.65,0,0-5.77-3.69-13.07-2.65s-16.19,9.11-16.19,9.11Z"/>
      <path class="cls-3" d="m125.42,137.03s-3.45.32-7.62-2.08c-4.17-2.41-8.5-7.38-8.5-7.38,0,0-2.24-6.01-.4-9.62,1.84-3.61,6.49-11.14,6.49-11.14,0,0-15.23,4.09-23.09,15.55-7.86,11.46-9.46,20.12-8.34,31.51,1.12,11.38,6.17,17.48,9.86,21.65s11.22,9.3,15.15,10.5c3.93,1.2,9.62,0,9.62,0-.94.2-2.65-.66-3.5-1.01-1.28-.53-2.51-1.2-3.64-2-3.35-2.36-5.65-5.78-7.34-9.47-2.14-4.67-3.57-10.1-2.66-15.24.57-3.23,2.37-5.96,4.72-8.2,4.97-4.73,19.24-13.07,19.24-13.07Z"/>
      <path class="cls-4" d="m114.02,129.83l-7.28,9.6s-1.76,1.2-4.33,0c-2.57-1.2-2.08-4.01-2.08-4.01,0,0-2.08-.4-3.05-2s-.64-3.59-.64-3.59c0,0-1.04-1.14-1.04-3.15s1.12-3.53,1.12-3.53c0,0-.4-2.89.48-4.49s3.21-1.68,3.21-1.68l11.38,3.05,2.23,9.8Z"/>
      <path class="cls-2" d="m110.19,125.89c.56,1.76,9.54,8.5,9.94,8.82s2.65,1.36,5.29,1.28,4.97-.56,13.39-5.69c1.09-.66,8.19-4.5,8.03-6.89-.01-.18-.06-.35-.16-.5-1.08-1.74-3.15-2.61-4.83-3.65-.65-.41-2.24-1.01-2.39-1.86-.16-.88-.72-.72,2.57-3.21.83-.63,3.72-2.65,2.52-3.93-.19-.2-.45-.33-.7-.45-3.33-1.55-6.91-2.5-10.51-3.2-3.41-.66-6.97-1.57-10.44-1.75-3.36-.17-5.34,1.43-6.79,4.36-1.87,3.78-3.78,7.56-5.58,11.38-.72,1.52-.88,3.53-.32,5.29Zm13.64-11.67c.47.25.6.89.35,1.34-.87,1.52-1.65,3.08-2.62,4.54-.3.46-.85.61-1.34.35-.45-.24-.63-.91-.35-1.34.97-1.46,1.75-3.02,2.62-4.54.27-.47.87-.6,1.34-.35Zm-1.28-4.17c.49.29.57.86.35,1.34-1.51,3.36-3.58,6.42-5.29,9.67-.59,1.11-2.27.13-1.69-.99,1.71-3.25,3.79-6.31,5.29-9.67.22-.48.92-.59,1.34-.35Zm-9.83,9.3c.21-.93.77-1.69,1.25-2.5.55-.92,1.05-1.88,1.56-2.82.53-.95,1.04-1.91,1.54-2.88.44-.85.73-1.79,1.2-2.62.62-1.1,2.31-.11,1.69.99-.47.83-.77,1.77-1.2,2.62-.46.91-.95,1.81-1.44,2.7-.49.89-.98,1.79-1.48,2.68-.43.77-1.04,1.48-1.23,2.35-.27,1.23-2.16.71-1.88-.52Z"/>
    </g>
  </g>
  <g>
    <path class="cls-1" d="m155.04,149.01l.59-1.78c.19-.57.63-1.01,1.2-1.2l1.78-.59-1.78-.59c-.57-.19-1.01-.63-1.2-1.2l-.59-1.78-.59,1.78c-.19.57-.63,1.01-1.2,1.2l-1.78.59,1.78.59c.57.19,1.01.63,1.2,1.2l.59,1.78Z"/>
    <path class="cls-1" d="m154.29,201.25l.59-1.78c.19-.57.63-1.01,1.2-1.2l1.78-.59-1.78-.59c-.57-.19-1.01-.63-1.2-1.2l-.59-1.78-.59,1.78c-.19.57-.63,1.01-1.2,1.2l-1.78.59,1.78.59c.57.19,1.01.63,1.2,1.2l.59,1.78Z"/>
    <path class="cls-1" d="m155.61,134.11l.39-1.16c.12-.37.41-.66.78-.78l1.16-.39-1.16-.39c-.37-.12-.66-.41-.78-.78l-.39-1.16-.39,1.16c-.12.37-.41.66-.78.78l-1.16.39,1.16.39c.37.12.66.41.78.78l.39,1.16Z"/>
    <path class="cls-1" d="m143.96,96.58l.39-1.16c.12-.37.41-.66.78-.78l1.16-.39-1.16-.39c-.37-.12-.66-.41-.78-.78l-.39-1.16-.39,1.16c-.12.37-.41.66-.78.78l-1.16.39,1.16.39c.37.12.66.41.78.78l.39,1.16Z"/>
    <path class="cls-1" d="m172.76,126.66l1.08-3.24c.34-1.03,1.15-1.84,2.18-2.18l3.24-1.08-3.24-1.08c-1.03-.34-1.84-1.15-2.18-2.18l-1.08-3.24-1.08,3.24c-.34,1.03-1.15,1.84-2.18,2.18l-3.24,1.08,3.24,1.08c1.03.34,1.84,1.15,2.18,2.18l1.08,3.24Z"/>
    <path class="cls-1" d="m132.86,139.28l-.59,1.78c-.19.57-.63,1.01-1.2,1.2l-1.78.59,1.78.59c.57.19,1.01.63,1.2,1.2l.59,1.78.59-1.78c.19-.57.63-1.01,1.2-1.2l1.78-.59-1.78-.59c-.57-.19-1.01-.63-1.2-1.2l-.59-1.78Z"/>
    <path class="cls-1" d="m133.6,87.04l-.59,1.78c-.19.57-.63,1.01-1.2,1.2l-1.78.59,1.78.59c.57.19,1.01.63,1.2,1.2l.59,1.78.59-1.78c.19-.57.63-1.01,1.2-1.2l1.78-.59-1.78-.59c-.57-.19-1.01-.63-1.2-1.2l-.59-1.78Z"/>
    <path class="cls-1" d="m132.29,154.18l-.39,1.16c-.12.37-.41.66-.78.78l-1.16.39,1.16.39c.37.12.66.41.78.78l.39,1.16.39-1.16c.12-.37.41-.66.78-.78l1.16-.39-1.16-.39c-.37-.12-.66-.41-.78-.78l-.39-1.16Z"/>
    <path class="cls-1" d="m143.94,191.71l-.39,1.16c-.12.37-.41.66-.78.78l-1.16.39,1.16.39c.37.12.66.41.78.78l.39,1.16.39-1.16c.12-.37.41-.66.78-.78l1.16-.39-1.16-.39c-.37-.12-.66-.41-.78-.78l-.39-1.16Z"/>
    <path class="cls-1" d="m115.13,161.62l-1.08,3.24c-.34,1.03-1.15,1.84-2.18,2.18l-3.24,1.08,3.24,1.08c1.03.34,1.84,1.15,2.18,2.18l1.08,3.24,1.08-3.24c.34-1.03,1.15-1.84,2.18-2.18l3.24-1.08-3.24-1.08c-1.03-.34-1.84-1.15-2.18-2.18l-1.08-3.24Z"/>
  </g>
</svg>