<?xml version="1.0" encoding="UTF-8"?>
<svg id="Layer_10" data-name="Layer 10" xmlns="http://www.w3.org/2000/svg" viewBox="0 0 288 288">
  <defs>
    <style>
      .cls-1 {
        fill: #fff;
      }

      .cls-2 {
        fill: #ffe4c0;
      }

      .cls-3 {
        fill: #ff4040;
      }

      .cls-4 {
        fill: #fa0;
      }
    </style>
  </defs>
  <circle cx="144" cy="144" r="54"/>
  <g>
    <path class="cls-3" d="m143.14,108.94c-3.73.15-8.26.74-11.89,1.57-3.05.7-6.08,1.62-8.91,2.98-5.44,2.62-10.68,7.31-14.62,11.89-4.23,4.92-7.07,10.82-9.26,16.88-5.49,15.17-9.96,18.02-12.63,19.02s-5.27.31-5.27.31c0,0,5.21,2.13,9.68.23,4.47-1.9,7.82-5.69,12.53-14.13,4.72-8.44,8.81-16.5,17.87-22.59,9.06-6.08,22.5-6.33,22.5-6.33v-9.83Z"/>
    <polygon class="cls-4" points="143.86 83.09 136.84 100.72 143.23 99.66 143.23 199.47 143.9 199.47 143.86 83.09"/>
    <circle class="cls-3" cx="82.61" cy="154.49" r="5.03"/>
    <path class="cls-4" d="m143.23,195.39v-1.92c-3.04,1.39-6.12,2.71-9.25,3.89-1.37.52-1.96-1.68-.6-2.19,3.34-1.26,6.62-2.69,9.86-4.19v-2.81c-3.07,1.37-6.19,2.62-9.23,4.05-.56.26-1.22.16-1.55-.41-.29-.5-.15-1.29.41-1.55,3.42-1.62,6.94-2.99,10.38-4.57v-2.59l-11.54,5.79v16.18s11.54-5.63,11.54-5.63v-1.6l-9.32,4.31c-1.38.5-1.96-1.69-.6-2.19l9.92-4.56Z"/>
    <path class="cls-2" d="m97.26,159.69c-.69.94-1.63,1.65-2.59,2.32-.48.33-.97.63-1.48.89l45.93,17.06-41.87-20.26Z"/>
    <path class="cls-2" d="m116.29,131.62s-.03.02-.04.04c-.17.15-.33.31-.49.48-.31.32-.62.66-.93.98-.31.32-.63.65-.91.99-.03.03-.06.07-.08.1-.03.04-.05.07-.08.11l-.07.14,22.29,39.72-19.67-42.56Z"/>
    <path class="cls-3" d="m144.61,108.94c3.73.15,8.26.74,11.89,1.57,3.05.7,6.08,1.62,8.91,2.98,5.44,2.62,10.68,7.31,14.62,11.89,4.23,4.92,7.07,10.82,9.26,16.88,5.49,15.17,9.96,18.02,12.63,19.02s5.27.31,5.27.31c0,0-5.21,2.13-9.68.23s-7.82-5.69-12.53-14.13c-4.72-8.44-8.81-16.5-17.87-22.59-9.06-6.08-22.5-6.33-22.5-6.33v-9.83Z"/>
    <polygon class="cls-4" points="143.9 83.09 150.92 100.72 144.53 99.66 144.53 199.47 143.86 199.47 143.9 83.09"/>
    <circle class="cls-3" cx="205.15" cy="154.49" r="5.03"/>
    <path class="cls-4" d="m144.53,195.39v-1.92c3.04,1.39,6.12,2.71,9.25,3.89,1.37.52,1.96-1.68.6-2.19-3.34-1.26-6.62-2.69-9.86-4.19v-2.81c3.07,1.37,6.19,2.62,9.23,4.05.56.26,1.22.16,1.55-.41.29-.5.15-1.29-.41-1.55-3.42-1.62-6.94-2.99-10.38-4.57v-2.59s11.54,5.79,11.54,5.79v16.18s-11.54-5.63-11.54-5.63v-1.6s9.32,4.31,9.32,4.31c1.38.5,1.96-1.69.6-2.19l-9.92-4.56Z"/>
    <path class="cls-2" d="m190.49,159.69c.69.94,1.63,1.65,2.59,2.32.48.33.97.63,1.48.89l-45.93,17.06,41.87-20.26Z"/>
    <path class="cls-2" d="m171.46,131.62s.03.02.04.04c.17.15.33.31.49.48.31.32.62.66.93.98.31.32.63.65.91.99.03.03.06.07.08.1.03.04.05.07.08.11l.07.14-22.29,39.72,19.67-42.56Z"/>
  </g>
  <g>
    <path class="cls-1" d="m93.39,188.31l.59-1.78c.19-.57.63-1.01,1.2-1.2l1.78-.59-1.78-.59c-.57-.19-1.01-.63-1.2-1.2l-.59-1.78-.59,1.78c-.19.57-.63,1.01-1.2,1.2l-1.78.59,1.78.59c.57.19,1.01.63,1.2,1.2l.59,1.78Z"/>
    <path class="cls-1" d="m125.2,90.87l.39-1.16c.12-.37.41-.66.78-.78l1.16-.39-1.16-.39c-.37-.12-.66-.41-.78-.78l-.39-1.16-.39,1.16c-.12.37-.41.66-.78.78l-1.16.39,1.16.39c.37.12.66.41.78.78l.39,1.16Z"/>
    <path class="cls-1" d="m109.99,87.75l.39-1.16c.12-.37.41-.66.78-.78l1.16-.39-1.16-.39c-.37-.12-.66-.41-.78-.78l-.39-1.16-.39,1.16c-.12.37-.41.66-.78.78l-1.16.39,1.16.39c.37.12.66.41.78.78l.39,1.16Z"/>
    <path class="cls-1" d="m85.89,123.88l1.08-3.24c.34-1.03,1.15-1.84,2.18-2.18l3.24-1.08-3.24-1.08c-1.03-.34-1.84-1.15-2.18-2.18l-1.08-3.24-1.08,3.24c-.34,1.03-1.15,1.84-2.18,2.18l-3.24,1.08,3.24,1.08c1.03.34,1.84,1.15,2.18,2.18l1.08,3.24Z"/>
    <path class="cls-1" d="m114.82,206.43l1.08-3.24c.34-1.03,1.15-1.84,2.18-2.18l3.24-1.08-3.24-1.08c-1.03-.34-1.84-1.15-2.18-2.18l-1.08-3.24-1.08,3.24c-.34,1.03-1.15,1.84-2.18,2.18l-3.24,1.08,3.24,1.08c1.03.34,1.84,1.15,2.18,2.18l1.08,3.24Z"/>
    <path class="cls-1" d="m194.6,188.31l-.59-1.78c-.19-.57-.63-1.01-1.2-1.2l-1.78-.59,1.78-.59c.57-.19,1.01-.63,1.2-1.2l.59-1.78.59,1.78c.19.57.63,1.01,1.2,1.2l1.78.59-1.78.59c-.57.19-1.01.63-1.2,1.2l-.59,1.78Z"/>
    <path class="cls-1" d="m162.79,90.87l-.39-1.16c-.12-.37-.41-.66-.78-.78l-1.16-.39,1.16-.39c.37-.12.66-.41.78-.78l.39-1.16.39,1.16c.12.37.41.66.78.78l1.16.39-1.16.39c-.37.12-.66.41-.78.78l-.39,1.16Z"/>
    <path class="cls-1" d="m178.01,87.75l-.39-1.16c-.12-.37-.41-.66-.78-.78l-1.16-.39,1.16-.39c.37-.12.66-.41.78-.78l.39-1.16.39,1.16c.12.37.41.66.78.78l1.16.39-1.16.39c-.37.12-.66.41-.78.78l-.39,1.16Z"/>
    <path class="cls-1" d="m202.11,123.88l-1.08-3.24c-.34-1.03-1.15-1.84-2.18-2.18l-3.24-1.08,3.24-1.08c1.03-.34,1.84-1.15,2.18-2.18l1.08-3.24,1.08,3.24c.34,1.03,1.15,1.84,2.18,2.18l3.24,1.08-3.24,1.08c-1.03.34-1.84,1.15-2.18,2.18l-1.08,3.24Z"/>
    <path class="cls-1" d="m172.18,206.43l-1.08-3.24c-.34-1.03-1.15-1.84-2.18-2.18l-3.24-1.08,3.24-1.08c1.03-.34,1.84-1.15,2.18-2.18l1.08-3.24,1.08,3.24c.34,1.03,1.15,1.84,2.18,2.18l3.24,1.08-3.24,1.08c-1.03.34-1.84,1.15-2.18,2.18l-1.08,3.24Z"/>
  </g>
</svg>