<?xml version="1.0" encoding="UTF-8"?>
<svg id="Layer_9" data-name="Layer 9" xmlns="http://www.w3.org/2000/svg" viewBox="0 0 288 288">
  <defs>
    <style>
      .cls-1 {
        fill: #fff;
      }

      .cls-2 {
        fill: #ffe4c0;
      }

      .cls-3 {
        fill: #ff4040;
      }

      .cls-4 {
        fill: #fa0;
      }
    </style>
  </defs>
  <circle cx="144" cy="144" r="54"/>
  <g>
    <path class="cls-3" d="m141.25,116.15c-.16.03-.33.05-.49.1-.06.02-.11.03-.17.05-.02,0-.12.05-.12.04-.04.02-.09.04-.13.06-.2.1-.39.21-.58.33-.11.07-.22.14-.32.22-.05.03-.09.07-.14.1,0,0,0,0,0,0-.1.08-.45.39-.48.42-.17.16-.33.32-.48.49-.07.08-.15.17-.22.25-.02.02-.04.05-.06.07-.14.28-.5,1.09-.58,2.23l-.1,1.41s-4.66,6.19-5.7,12.29c-1.04,6.11-1.4,22.48,0,25.59,1.4,3.11,3.55,5.33,5.8,6.37,2.25,1.04,6.72,1.51,6.72,1.51v-51.12s-2.15,0-2.95-.43Z"/>
    <path class="cls-3" d="m96.4,108.96s-1.26,9.33,2.99,17.93c4.03,8.15,6.89,11.63,17.02,6.89,10.13-4.74,12.02-7.73,12.02-7.73,0,0,2.6,3.38,5.91,3.38s1.23-5.07,1.23-5.07c0,0-2.69-1.91-8.87-1.91s-15.36,6.92-15.36,6.92c0,0,.65-3.77-1.95-9.81-2.6-6.04-7.08-10.59-7.08-10.59h-5.91Z"/>
    <path class="cls-4" d="m103.12,111.02c.24-.02.47-.08.7-.12.89-1.24,1.66-2.57,2.33-3.94,1.94-3.96,3.76-8.56,2.51-12.94-.21-.33-.47-.69-.82-1.12-1.56-1.9-1.85-3.61-.78-4.97,1.07-1.36,2.92-.88,2.92-.88,0,0-1.27-2.34.49-3.75,1.75-1.41,3.36-.49,3.36-.49,0,0-.97-2.29,1.02-3.56,2-1.27,4.79-1.87,4.79-1.87-3.6.19-7.27.94-10.7,2.02-6.96,2.19-14.44,8.01-16.7,15.22-1.15,3.69-.92,10.15,1.57,13.31,2.16,2.75,6.01,3.41,9.29,3.08Z"/>
    <path class="cls-4" d="m120.32,86.27c-.63-5.55-.15-3.85-2.34-.34-1.88,3-5.14,6.86-6.78,8.39.94,4.45-.77,9.04-2.66,13.1-.36.78-.76,1.54-1.19,2.29,5.63-2.83,9.8-9.25,10.47-10.59.83-1.66,3.12-7.31,2.48-12.86Z"/>
    <path class="cls-3" d="m132.74,136.79s-2.63,1.36-4.19,2.92c-1.56,1.56-3.02,3.7-3.02,3.7,0,0-2.34-.29-3.51,0s-3.8,1.75-3.8,1.75c0,0-3.02-.88-5.46-1.36s-5.55-.1-5.55-.1c0,0,6.53,5.46,15.39,2.63,8.87-2.83,11.3-7.7,11.3-7.7l-1.17-1.85Z"/>
    <path class="cls-3" d="m132.69,149.36s-2.83,4.73-10.86,6.24c-8.04,1.51-12.47.24-14.61-.78s-3.85-2.78-3.85-2.78c0,0,2.14-.49,6.33.58s5.85,1.85,5.85,1.85c0,0,1.41-1.15,4.19-1.65s4.48,0,4.48,0c0,0,0-1.42,3.26-3.71s4.82-2.68,4.82-2.68l.39,2.92Z"/>
    <path class="cls-3" d="m133.28,158.18s-2.97,4.77-9.55,7.5c-6.58,2.73-11.84,2.05-14.61,1.56s-4.77-2.48-4.77-2.48c0,0,2.73-.68,6.67-.29s6.28,1.46,6.28,1.46c0,0,1.22-1.41,3.51-2.53s4.97-1.17,4.97-1.17c0,0,.49-2.44,2.87-4.68,2.39-2.24,3.75-2.87,3.75-2.87l.88,3.51Z"/>
    <path class="cls-3" d="m135.37,162.86s-.68,4.53-5.75,8.96c-5.07,4.43-10.77,4.19-12.96,4.09l-2.19-.1s1.46-1.22,5.02-1.9,4.43-.49,4.43-.49c0,0-.1-1.61,2.34-3.61,2.44-2,3.75-1.8,3.75-1.8,0,0,.05-1.27,1.41-3.36,1.36-2.09,3.17-3.02,3.17-3.02l.78,1.22Z"/>
    <path class="cls-3" d="m168.74,188.87s1.02-2.19-1.7-4.92c-2.73-2.73-3.7-2.19-3.7-2.19,0,0-.44-1.51-2.29-2.97-1.85-1.46-3.75-1.17-3.75-1.17,0,0,.34-1.07-1.32-2.19-1.66-1.12-2.73-1.46-2.73-1.46,0,0,.29-.24-.63-2.29-.93-2.05-1.51-1.8-1.51-1.8,0,0-.44-3.85-.34-4.04.1-.19-13.49-.49-13.49-.49,0,0-.54,2.14.89,5.13,1.43,2.99,2.79,3.57,2.79,3.57,0,0-.26,2.27,1.56,4.61,1.82,2.34,3.77,2.34,3.77,2.34,0,0,.45,1.88,2.34,3.18,1.88,1.3,4.03,1.56,4.03,1.56,0,0,.52,1.3,2.14,2.14,1.62.84,3.25,1.04,3.25,1.04,0,0,.52,1.1,1.3,2.08.78.97,1.49,1.17,1.49,1.17,0,0-.02.11,0,1.14l.02,1.02s-.68.34-1.32.54c-.63.19-1.17.83-1.17.83,0,0-1.32-.78-3.02-.68s-3.31,1.07-3.31,1.07c0,0-1.17-1.17-3.56-1.12-2.39.05-3.26,1.12-3.26,1.12,0,0-.83-1.12-3.26-.78-2.44.34-3.65,1.17-3.65,1.17,0,0-.97-1.07-3.36-.88-2.39.19-3.41,1.22-3.41,1.22,0,0-.68-.68-2.34-.97-1.32-.23-2.2,0-2.5.1.04-.11-.02-.41-.47-1.27-.83-1.56-1.17-1.85-1.17-1.85,0,0,.29-.24.88-1.22.04-.06.06-.13.09-.2-.88-.17-1.73-.43-2.55-.85-1.08-.57-2.15-1.42-2.92-2.46-.25.41-.47.87-.57,1.37-.34,1.71.73,3.02.73,3.02,0,0-2.33,1.66-.8,5.36,1.53,3.7,3.87,2.63,3.87,2.63,0,0,.58,3.02,3.7,3.22,3.12.19,4.09-1.02,4.09-1.02,0,0,.58,1.36,2.97,1.32,2.39-.05,3.95-1.07,3.95-1.07,0,0,.97,1.07,3.26,1.07,2.29,0,3.41-1.17,3.41-1.17,0,0,1.17,2.14,3.56,1.75,2.39-.39,3.31-1.07,3.31-1.07,0,0,.63.97,3.51.83s3.56-.88,3.56-.88c0,0,3.22,1.36,5.8-.1,2.58-1.46,3.02-4.73,3.02-4.73,0,0,2.34-.1,2.92-4.68.58-4.58-2.09-5.07-2.09-5.07Z"/>
    <path class="cls-4" d="m122.95,187.22c.58.59,1.08.97,1.85,1.34.59.29,1.52.53,2.12.61.1.01.19.01.29.02.75-.11,1.88-.49,3.35-1.59,2.87-2.14,2.19-4.77,2.19-5.36s-.1-2.97.54-3.7c.63-.73,2.09-.93,2.09-.93,0,0-.39-1.71-5.41-.93-5.02.78-7.7,5.21-7.99,6.58-.16.72-.14,1.57-.1,2.2.18.67.55,1.22,1.08,1.75Z"/>
    <path class="cls-2" d="m138.36,114.69c.35-.22.73-.41,1.11-.56-.14-.46-.22-1.01-.2-1.69.03-1.42.22-1.85.37-1.97-.62.12-2.75.7-2.75,3.29,0,.75.06,1.41.16,1.97.41-.38.84-.72,1.32-1.03Z"/>
    <path class="cls-3" d="m191.59,108.96s1.26,9.33-2.99,17.93c-4.03,8.15-6.89,11.63-17.02,6.89-10.13-4.74-12.02-7.73-12.02-7.73,0,0-2.6,3.38-5.91,3.38s-1.23-5.07-1.23-5.07c0,0,2.69-1.91,8.87-1.91s15.36,6.92,15.36,6.92c0,0-.65-3.77,1.95-9.81,2.6-6.04,7.08-10.59,7.08-10.59h5.91Z"/>
    <path class="cls-4" d="m184.87,111.02c-.24-.02-.47-.08-.7-.12-.89-1.24-1.66-2.57-2.33-3.94-1.94-3.96-3.76-8.56-2.51-12.94.21-.33.47-.69.82-1.12,1.56-1.9,1.85-3.61.78-4.97-1.07-1.36-2.92-.88-2.92-.88,0,0,1.27-2.34-.49-3.75-1.75-1.41-3.36-.49-3.36-.49,0,0,.97-2.29-1.02-3.56-2-1.27-4.79-1.87-4.79-1.87,3.6.19,7.27.94,10.7,2.02,6.96,2.19,14.44,8.01,16.7,15.22,1.15,3.69.92,10.15-1.57,13.31-2.16,2.75-6.01,3.41-9.29,3.08Z"/>
    <path class="cls-4" d="m167.67,86.27c.63-5.55.15-3.85,2.34-.34,1.88,3,5.14,6.86,6.78,8.39-.94,4.45.77,9.04,2.66,13.1.36.78.76,1.54,1.19,2.29-5.63-2.83-9.8-9.25-10.47-10.59-.83-1.66-3.12-7.31-2.48-12.86Z"/>
    <path class="cls-3" d="m155.25,136.79s2.63,1.36,4.19,2.92c1.56,1.56,3.02,3.7,3.02,3.7,0,0,2.34-.29,3.51,0s3.8,1.75,3.8,1.75c0,0,3.02-.88,5.46-1.36s5.55-.1,5.55-.1c0,0-6.53,5.46-15.39,2.63s-11.3-7.7-11.3-7.7l1.17-1.85Z"/>
    <path class="cls-3" d="m155.3,149.36s2.83,4.73,10.86,6.24,12.47.24,14.61-.78,3.85-2.78,3.85-2.78c0,0-2.14-.49-6.33.58-4.19,1.07-5.85,1.85-5.85,1.85,0,0-1.41-1.15-4.19-1.65s-4.48,0-4.48,0c0,0,0-1.42-3.26-3.71s-4.82-2.68-4.82-2.68l-.39,2.92Z"/>
    <path class="cls-3" d="m154.71,158.18s2.97,4.77,9.55,7.5,11.84,2.05,14.61,1.56c2.78-.49,4.77-2.48,4.77-2.48,0,0-2.73-.68-6.67-.29-3.95.39-6.28,1.46-6.28,1.46,0,0-1.22-1.41-3.51-2.53s-4.97-1.17-4.97-1.17c0,0-.49-2.44-2.87-4.68-2.39-2.24-3.75-2.87-3.75-2.87l-.88,3.51Z"/>
    <path class="cls-3" d="m152.62,162.86s.68,4.53,5.75,8.96c5.07,4.43,10.77,4.19,12.96,4.09l2.19-.1s-1.46-1.22-5.02-1.9-4.43-.49-4.43-.49c0,0,.1-1.61-2.34-3.61s-3.75-1.8-3.75-1.8c0,0-.05-1.27-1.41-3.36-1.36-2.09-3.17-3.02-3.17-3.02l-.78,1.22Z"/>
    <path class="cls-2" d="m149.63,114.69c-.35-.22-.73-.41-1.11-.56.14-.46.22-1.01.2-1.69-.03-1.42-.22-1.85-.37-1.97.62.12,2.75.7,2.75,3.29,0,.75-.06,1.41-.16,1.97-.41-.38-.84-.72-1.32-1.03Z"/>
    <path class="cls-3" d="m146.94,116.15c.16.03.33.05.49.1.06.02.11.03.17.05.02,0,.12.05.12.04.04.02.09.04.13.06.2.1.39.21.58.33.11.07.22.14.32.22.05.03.09.07.14.1,0,0,0,0,0,0,.1.08.45.39.48.42.17.16.33.32.48.49.07.08.15.17.22.25.02.02.04.05.06.07.14.28.5,1.09.58,2.23l.1,1.41s4.66,6.19,5.7,12.29c1.04,6.11,1.4,22.48,0,25.59s-3.55,5.33-5.8,6.37c-2.25,1.04-6.72,1.51-6.72,1.51v-51.12s2.15,0,2.95-.43Z"/>
  </g>
  <g>
    <path class="cls-1" d="m143.99,98.09l-.39-1.16c-.12-.37-.41-.66-.78-.78l-1.16-.39,1.16-.39c.37-.12.66-.41.78-.78l.39-1.16.39,1.16c.12.37.41.66.78.78l1.16.39-1.16.39c-.37.12-.66.41-.78.78l-.39,1.16Z"/>
    <path class="cls-1" d="m104.17,183.75l-.59-1.78c-.19-.57-.63-1.01-1.2-1.2l-1.78-.59,1.78-.59c.57-.19,1.01-.63,1.2-1.2l.59-1.78.59,1.78c.19.57.63,1.01,1.2,1.2l1.78.59-1.78.59c-.57.19-1.01.63-1.2,1.2l-.59,1.78Z"/>
    <path class="cls-1" d="m82.87,117.1l-.39-1.16c-.12-.37-.41-.66-.78-.78l-1.16-.39,1.16-.39c.37-.12.66-.41.78-.78l.39-1.16.39,1.16c.12.37.41.66.78.78l1.16.39-1.16.39c-.37.12-.66.41-.78.78l-.39,1.16Z"/>
    <path class="cls-1" d="m96.74,141.19l-.39-1.16c-.12-.37-.41-.66-.78-.78l-1.16-.39,1.16-.39c.37-.12.66-.41.78-.78l.39-1.16.39,1.16c.12.37.41.66.78.78l1.16.39-1.16.39c-.37.12-.66.41-.78.78l-.39,1.16Z"/>
    <path class="cls-1" d="m123.68,116.32l-1.08-3.24c-.34-1.03-1.15-1.84-2.18-2.18l-3.24-1.08,3.24-1.08c1.03-.34,1.84-1.15,2.18-2.18l1.08-3.24,1.08,3.24c.34,1.03,1.15,1.84,2.18,2.18l3.24,1.08-3.24,1.08c-1.03.34-1.84,1.15-2.18,2.18l-1.08,3.24Z"/>
    <path class="cls-1" d="m90.24,165.3l-1.08-3.24c-.34-1.03-1.15-1.84-2.18-2.18l-3.24-1.08,3.24-1.08c1.03-.34,1.84-1.15,2.18-2.18l1.08-3.24,1.08,3.24c.34,1.03,1.15,1.84,2.18,2.18l3.24,1.08-3.24,1.08c-1.03.34-1.84,1.15-2.18,2.18l-1.08,3.24Z"/>
    <path class="cls-1" d="m183.94,183.75l.59-1.78c.19-.57.63-1.01,1.2-1.2l1.78-.59-1.78-.59c-.57-.19-1.01-.63-1.2-1.2l-.59-1.78-.59,1.78c-.19.57-.63,1.01-1.2,1.2l-1.78.59,1.78.59c.57.19,1.01.63,1.2,1.2l.59,1.78Z"/>
    <path class="cls-1" d="m205.24,117.1l.39-1.16c.12-.37.41-.66.78-.78l1.16-.39-1.16-.39c-.37-.12-.66-.41-.78-.78l-.39-1.16-.39,1.16c-.12.37-.41.66-.78.78l-1.16.39,1.16.39c.37.12.66.41.78.78l.39,1.16Z"/>
    <path class="cls-1" d="m191.37,141.19l.39-1.16c.12-.37.41-.66.78-.78l1.16-.39-1.16-.39c-.37-.12-.66-.41-.78-.78l-.39-1.16-.39,1.16c-.12.37-.41.66-.78.78l-1.16.39,1.16.39c.37.12.66.41.78.78l.39,1.16Z"/>
    <path class="cls-1" d="m164.43,116.32l1.08-3.24c.34-1.03,1.15-1.84,2.18-2.18l3.24-1.08-3.24-1.08c-1.03-.34-1.84-1.15-2.18-2.18l-1.08-3.24-1.08,3.24c-.34,1.03-1.15,1.84-2.18,2.18l-3.24,1.08,3.24,1.08c1.03.34,1.84,1.15,2.18,2.18l1.08,3.24Z"/>
    <path class="cls-1" d="m197.87,165.3l1.08-3.24c.34-1.03,1.15-1.84,2.18-2.18l3.24-1.08-3.24-1.08c-1.03-.34-1.84-1.15-2.18-2.18l-1.08-3.24-1.08,3.24c-.34,1.03-1.15,1.84-2.18,2.18l-3.24,1.08,3.24,1.08c1.03.34,1.84,1.15,2.18,2.18l1.08,3.24Z"/>
  </g>
</svg>