<?xml version="1.0" encoding="UTF-8"?>
<svg id="Layer_3" data-name="Layer 3" xmlns="http://www.w3.org/2000/svg" viewBox="0 0 288 288">
  <defs>
    <style>
      .cls-1 {
        fill: #fff;
      }

      .cls-2 {
        fill: #ffe4c0;
      }

      .cls-3 {
        fill: #ff4040;
      }

      .cls-4 {
        fill: #fa0;
      }
    </style>
  </defs>
  <circle cx="144" cy="144" r="54"/>
  <g>
    <path class="cls-2" d="m134.53,183.03s.67,2.76,2.43,3.44,7.01.54,7.01.54l.03-6-9.47,2.02Z"/>
    <path class="cls-4" d="m143.96,171.03l-6.13-5.24-2.58.4-3.94,2.83-1.57,4.2s-1.21,1.62,0,3.84c1.21,2.22,1.28,3.69,2.46,4.65,1.18.96,1.18,1.97,6.24.76,5.06-1.21,5.56-1.11,5.56-1.11l-.03-10.33Zm-2.7,6.29c-.35-.91-.66-1.37-1.01-2.08-.35-.71-3.69-1.16-4.3-2.02-.61-.86-.15-1.97.96-1.82s3.49,1.72,4.25,2.48.96,5.21.96,5.21c0,0-.51-.86-.86-1.77Z"/>
    <path class="cls-3" d="m110.88,142.28s-11.22,7.43-13.25,8.09-3.08,1.57-2.22,2.63,2.53.56,5.41,1.42,6.72,1.87,10.06.2,7.48-8.69,7.48-8.69l-7.48-3.65Z"/>
    <path class="cls-4" d="m109.84,135.4c3.42,1.61,6.97,2.91,10.42,4.45l1.13-2.7c-4.52-1.61-9.09-3.08-13.45-5.09-.61-.28-.75-1.15-.44-1.69.36-.61,1.08-.72,1.69-.44,4.26,1.96,8.74,3.38,13.16,4.95l.73-1.74c-.9-.37-1.79-.76-2.7-1.1-1.45-.54-2.91-1.07-4.36-1.61-2.88-1.09-5.74-2.27-8.44-3.78-1.39-.77-.14-2.9,1.24-2.13,2.6,1.45,5.35,2.59,8.14,3.64,1.35.51,2.71,1,4.07,1.51,1.01.37,1.99.82,2.99,1.22l1.63-3.88s-13.5-5.06-14.61-5.56-2.83-2.93-.81-6.47c2.02-3.54,9.51-15.07,10.21-19.11.71-4.04.1-4.85-3.64-10.52-3.74-5.66-5.46-7.48-5.97-5.86-.57,1.84.86,4.9,1.28,6.68.5,2.1.87,4.22-.38,6.13-1.57,2.42-3.91,4.55-5.81,6.73-4.39,5.04-8.72,10.16-12.5,15.68-1.19,1.74-2.37,3.52-3.26,5.44-2.33,5.04.3,9.98,3.67,13.64,3.64,3.94,23.86,12.14,23.86,12.14l1.6-3.81c-3.54-1.61-7.2-2.93-10.71-4.59-.6-.29-.76-1.15-.44-1.69.36-.61,1.08-.73,1.69-.44Z"/>
    <path class="cls-2" d="m143.9,123.37s-9.57.81-13.62,1.75-5.12,1.75-5.12,1.75l-4.72,12.27s1.59,1.32,2.86,2.43c2.37,2.06,6.4,3.87,8.91,7.96.56.91,1.37,6.02,1.85,10.45.41,3.75.95,7.08.95,7.08,0,0,1.08-.2,2.97,0s3.1,3.17,4.38,3.64,1.62.34,1.62.34l-.07-47.66Z"/>
    <path class="cls-3" d="m129.74,173.22s.1-5.06-1.11-6.98-5.97-3.74-8.8-7.48-1.01-5.26-1.52-8.39-1.04-4.85-.12-7.79,2.24-3.44,2.24-3.44l6.76,5.27s-1.04,3.68.12,5.96,2.48,3.49,3.89,4.1,2.18.59,2.18.59l1.61,12s-1.01-.1-1.97,1.47-3.29,4.7-3.29,4.7Z"/>
    <path class="cls-2" d="m153.44,183.03s-.67,2.76-2.43,3.44-7.01.54-7.01.54l-.03-6,9.47,2.02Z"/>
    <path class="cls-4" d="m143.97,181.36s.51-.1,5.56,1.11c5.06,1.21,5.06.2,6.24-.76,1.18-.96,1.25-2.43,2.46-4.65,1.21-2.22,0-3.84,0-3.84l-1.57-4.2-3.94-2.83-2.58-.4-6.13,5.24-.03,10.33Zm1.87-2.28s.2-4.45.96-5.21,3.13-2.33,4.25-2.48,1.57.96.96,1.82c-.61.86-3.94,1.3-4.3,2.02-.35.71-.66,1.17-1.01,2.08-.35.91-.86,1.77-.86,1.77Z"/>
    <path class="cls-3" d="m177.08,142.28s11.22,7.43,13.25,8.09,3.08,1.57,2.22,2.63-2.53.56-5.41,1.42-6.72,1.87-10.06.2-7.48-8.69-7.48-8.69l7.48-3.65Z"/>
    <path class="cls-4" d="m178.13,135.4c-3.42,1.61-6.97,2.91-10.42,4.45l-1.13-2.7c4.52-1.61,9.09-3.08,13.45-5.09.61-.28.75-1.15.44-1.69-.36-.61-1.08-.72-1.69-.44-4.26,1.96-8.74,3.38-13.16,4.95l-.73-1.74c.9-.37,1.79-.76,2.7-1.1,1.45-.54,2.91-1.07,4.36-1.61,2.88-1.09,5.74-2.27,8.44-3.78,1.39-.77.14-2.9-1.24-2.13-2.6,1.45-5.35,2.59-8.14,3.64-1.35.51-2.71,1-4.07,1.51-1.01.37-1.99.82-2.99,1.22l-1.63-3.88s13.5-5.06,14.61-5.56,2.83-2.93.81-6.47c-2.02-3.54-9.51-15.07-10.21-19.11-.71-4.04-.1-4.85,3.64-10.52,3.74-5.66,5.46-7.48,5.97-5.86.57,1.84-.86,4.9-1.28,6.68-.5,2.1-.87,4.22.38,6.13,1.57,2.42,3.91,4.55,5.81,6.73,4.39,5.04,8.72,10.16,12.5,15.68,1.19,1.74,2.37,3.52,3.26,5.44,2.33,5.04-.3,9.98-3.67,13.64-3.64,3.94-23.86,12.14-23.86,12.14l-1.6-3.81c3.54-1.61,7.2-2.93,10.71-4.59.6-.29.76-1.15.44-1.69-.36-.61-1.08-.73-1.69-.44Z"/>
    <path class="cls-2" d="m144.07,123.37s9.57.81,13.62,1.75,5.12,1.75,5.12,1.75l4.72,12.27s-1.59,1.32-2.86,2.43c-2.37,2.06-6.4,3.87-8.91,7.96-.56.91-1.37,6.02-1.85,10.45-.41,3.75-.95,7.08-.95,7.08,0,0-1.08-.2-2.97,0s-3.1,3.17-4.38,3.64-1.62.34-1.62.34l.07-47.66Z"/>
    <path class="cls-3" d="m158.22,173.22s-.1-5.06,1.11-6.98,5.97-3.74,8.8-7.48,1.01-5.26,1.52-8.39,1.04-4.85.12-7.79-2.24-3.44-2.24-3.44l-6.76,5.27s1.04,3.68-.12,5.96-2.48,3.49-3.89,4.1-2.18.59-2.18.59l-1.61,12s1.01-.1,1.97,1.47,3.29,4.7,3.29,4.7Z"/>
  </g>
  <g>
    <path class="cls-1" d="m110.25,176.09l-1.08-3.24c-.34-1.03-1.15-1.84-2.18-2.18l-3.24-1.08,3.24-1.08c1.03-.34,1.84-1.15,2.18-2.18l1.08-3.24,1.08,3.24c.34,1.03,1.15,1.84,2.18,2.18l3.24,1.08-3.24,1.08c-1.03.34-1.84,1.15-2.18,2.18l-1.08,3.24Z"/>
    <path class="cls-1" d="m122.77,110.59l-.59-1.78c-.19-.57-.63-1.01-1.2-1.2l-1.78-.59,1.78-.59c.57-.19,1.01-.63,1.2-1.2l.59-1.78.59,1.78c.19.57.63,1.01,1.2,1.2l1.78.59-1.78.59c-.57.19-1.01.63-1.2,1.2l-.59,1.78Z"/>
    <path class="cls-1" d="m134.85,115.32l-.39-1.16c-.12-.37-.41-.66-.78-.78l-1.16-.39,1.16-.39c.37-.12.66-.41.78-.78l.39-1.16.39,1.16c.12.37.41.66.78.78l1.16.39-1.16.39c-.37.12-.66.41-.78.78l-.39,1.16Z"/>
    <path class="cls-1" d="m96.57,144.92l-.39-1.16c-.12-.37-.41-.66-.78-.78l-1.16-.39,1.16-.39c.37-.12.66-.41.78-.78l.39-1.16.39,1.16c.12.37.41.66.78.78l1.16.39-1.16.39c-.37.12-.66.41-.78.78l-.39,1.16Z"/>
    <path class="cls-1" d="m85.02,159.87l-.39-1.16c-.12-.37-.41-.66-.78-.78l-1.16-.39,1.16-.39c.37-.12.66-.41.78-.78l.39-1.16.39,1.16c.12.37.41.66.78.78l1.16.39-1.16.39c-.37.12-.66.41-.78.78l-.39,1.16Z"/>
    <path class="cls-1" d="m144.03,97.01l-1.08-3.24c-.34-1.03-1.15-1.84-2.18-2.18l-3.24-1.08,3.24-1.08c1.03-.34,1.84-1.15,2.18-2.18l1.08-3.24,1.08,3.24c.34,1.03,1.15,1.84,2.18,2.18l3.24,1.08-3.24,1.08c-1.03.34-1.84,1.15-2.18,2.18l-1.08,3.24Z"/>
    <path class="cls-1" d="m177.72,176.09l1.08-3.24c.34-1.03,1.15-1.84,2.18-2.18l3.24-1.08-3.24-1.08c-1.03-.34-1.84-1.15-2.18-2.18l-1.08-3.24-1.08,3.24c-.34,1.03-1.15,1.84-2.18,2.18l-3.24,1.08,3.24,1.08c1.03.34,1.84,1.15,2.18,2.18l1.08,3.24Z"/>
    <path class="cls-1" d="m165.19,110.59l.59-1.78c.19-.57.63-1.01,1.2-1.2l1.78-.59-1.78-.59c-.57-.19-1.01-.63-1.2-1.2l-.59-1.78-.59,1.78c-.19.57-.63,1.01-1.2,1.2l-1.78.59,1.78.59c.57.19,1.01.63,1.2,1.2l.59,1.78Z"/>
    <path class="cls-1" d="m153.11,115.32l.39-1.16c.12-.37.41-.66.78-.78l1.16-.39-1.16-.39c-.37-.12-.66-.41-.78-.78l-.39-1.16-.39,1.16c-.12.37-.41.66-.78.78l-1.16.39,1.16.39c.37.12.66.41.78.78l.39,1.16Z"/>
    <path class="cls-1" d="m191.39,144.92l.39-1.16c.12-.37.41-.66.78-.78l1.16-.39-1.16-.39c-.37-.12-.66-.41-.78-.78l-.39-1.16-.39,1.16c-.12.37-.41.66-.78.78l-1.16.39,1.16.39c.37.12.66.41.78.78l.39,1.16Z"/>
    <path class="cls-1" d="m202.94,159.87l.39-1.16c.12-.37.41-.66.78-.78l1.16-.39-1.16-.39c-.37-.12-.66-.41-.78-.78l-.39-1.16-.39,1.16c-.12.37-.41.66-.78.78l-1.16.39,1.16.39c.37.12.66.41.78.78l.39,1.16Z"/>
  </g>
</svg>