<?xml version="1.0" encoding="UTF-8"?>
<svg id="Layer_7" data-name="Layer 7" xmlns="http://www.w3.org/2000/svg" viewBox="0 0 288 288">
  <defs>
    <style>
      .cls-1 {
        fill: #fff;
      }

      .cls-2 {
        fill: #ffe4c0;
      }

      .cls-3 {
        fill: #ff4040;
      }

      .cls-4 {
        fill: #fa0;
      }
    </style>
  </defs>
  <circle cx="143.7" cy="143.33" r="54"/>
  <g>
    <path class="cls-2" d="m137.31,126.43c1.58-.16,4.11.1,7.9,2.79s6.48,5.93,6.88,8.35,10.91,4.85,11.04,5.66-1.48,3.23-1.89,4.04-.81,2.56.81,2.83,2.42.94,2.15,1.75-1.08,1.48-1.08,1.48c0,0,2.29,1.08,2.29,1.75s-.94,2.29-.94,2.29c0,0,4.17,4.31,2.83,6.6s-10.77,2.15-13.33,6.46-1.48,15.89-1.48,15.89c0,0-16.43,8.08-21.41,3.64-4.98-4.44-5.12-6.06-5.12-6.06-.03-.32.8-1.23.96-1.5.6-.98,1.24-1.97,1.76-3,1.06-2.09,1.5-4.44,1.55-6.77.07-3.62-.98-6.82-2.26-10.15.08.2,1.14.19,1.33.23.74.15,1.49.28,2.25.31.68.03,1.38-.03,2.03-.23.24-.07,1.24-.91,1.24-.91,0,0,3.31,3.87,5.73,5.14,2.61,1.36,5.46,1.71,8.32,1.16,4.44-.86,5.81-1.26,5.81-1.26-1.61.48-3.28.49-4.93.69s-3.31.15-4.96-.29c-2.45-.66-4.68-1.99-6.59-3.64-.96-.84-1.76-1.77-2.58-2.72-.17-.19-1.27-1.18-1.24-1.46,0,0-.15,1.52-2.27,1.77s-5.05-1.72-7.07-4.65-1.77-5.25.86-5.96c1.9-.51,3.61,1.02,5.46,1.1.93.04,1.37-.51,1.58-1.37.7-2.95,1.05-6.24-.3-9.07-.57-1.2-1.4-2.31-1.7-3.63-.34-1.47-.02-3.04.18-4.5.19-1.38.81-2.76,1.65-3.86,1.05-1.37,2.77-2.74,4.55-2.92Z"/>
    <path class="cls-4" d="m194.51,119.39c9.16-6.46,23.36-13.58,18.55-24.22-5.49-12.14-41.98,3.89-41.98,3.89,0,0,13.2-7.95,14.95-12.93s1.35-10.5-19.8-14.27-39.06,2.39-49.96,6.87c-10.63,4.36-42.25,21.58-42.79,42.45-.54,20.87,2.32,26.66,18.58,42.93,8.77,8.77,34.58,15.62,34.58,15.62,0,0,.88-2.29,1.48-4.24s.56-6.23.56-6.23c-.61-5.1-1.46-6.01-2.32-8.03s-2.83-4.29-3.59-7.07,2.12-4.44,3.28-4.7c.68-.15,2.43.53,3.72.75.91.15,1.78-.45,1.96-1.36.14-.7.33-1.57.58-2.57.61-2.47-1.36-6.28-2.17-7.63s-1.75-3.91.13-8.75,8.89-4.61,8.89-4.61c0,0,1.11-3.63-6.6-5.08-7.14-1.35-9.97.13-20.34,5.08-10.37,4.95-13.19-4.19-8.35-14.24,5.25-10.91,19.28-19.43,33.4-21.95,7.34-1.31,25.18-4.02,26.8.13,1.58,4.07-19.9,8.51-17.64,17.24,1.89,7.27,22.62,1.48,36.76-.54,14.14-2.02,8.62,7.81-1.62,16.29-6.56,5.43-26.21,11.22-10.64,14.81,10.5,2.42,21.01,1.75,20.07,7-.94,5.25-14.63,8.21-7.95,7.95,6.73-.27,16.87-4.17,16.87-9.43,0-7.54-13.64-6.87-19.7-9.56-6.06-2.69,5.12-7.14,14.28-13.6Zm-89.75,45.09c-5.2-2.17-10.12-4.85-14.38-8.57-8.1-7.07-13.72-17.1-13.34-28.06.18-5.1,1.38-10.24,3.75-14.77,2.29-4.4,5.61-8.16,9.09-11.66,1.12-1.12,2.86.62,1.74,1.74-3.68,3.7-7.13,7.67-9.34,12.45-4.19,9.07-3.59,19.97,1.43,28.57,4.9,8.41,12.86,14.24,21.71,17.93,1.44.6.81,2.98-.65,2.37Zm6.87-10.91c-4.73-1-9.46-2.06-13.88-4.07-4.47-2.03-8.6-5.3-9.24-10.45-.2-1.57,2.27-1.55,2.46,0,.55,4.43,4.98,7.05,8.71,8.62,4.03,1.7,8.34,2.62,12.61,3.52,1.55.33.89,2.7-.65,2.37Zm9.23-11.34c1.27.93.04,3.06-1.24,2.13-5.36-3.91-12.4-5.42-18.85-3.71-1.54.41-2.18-1.97-.65-2.37,7.03-1.86,14.88-.32,20.74,3.96Zm50.07-50.91c2.81-1.86,8.99-4.72,7.67-9.02-1.1-3.55-4.99-5.24-8.28-6.1-3.81-1-7.8-1.22-11.73-1.23-5.17,0-10.32.34-15.42,1.23-6.02,1.06-11.9,2.72-17.76,4.44-1.53.45-2.17-1.93-.65-2.37,7.26-2.13,14.57-4.13,22.09-5.09,4.99-.63,10.09-.82,15.12-.59,4.34.2,8.84.76,12.83,2.6,3.52,1.63,7.19,5.23,6.31,9.48-.88,4.28-5.63,6.59-8.94,8.77-1.33.88-2.56-1.26-1.24-2.13Z"/>
    <path class="cls-3" d="m128.92,136.84s-2.05-2.44.36-3.5c2.53-1.12,2.89,1.97,2.89,1.97,0,0,1.97-2.94,3.53-.61,1.66,2.48-1.25,3.2-1.26,3.16,0,0,3.08.69,1.78,3.01s-3.66.05-3.66.05c0,0-.17,3.32-2.64,2.53-2.3-.74-.78-3.29-.78-3.29,0,0-2.9,1.43-3.19-1.22s2.98-2.09,2.98-2.09Z"/>
    <path class="cls-3" d="m143.73,147.24s-1.65-1.96.29-2.82c2.04-.9,2.33,1.59,2.33,1.59,0,0,1.59-2.37,2.84-.49,1.33,2-1,2.57-1.02,2.54,0,0,2.48.56,1.43,2.42s-2.94.04-2.94.04c0,0-.14,2.67-2.12,2.03-1.85-.59-.63-2.65-.63-2.65,0,0-2.33,1.15-2.57-.98s2.4-1.68,2.4-1.68Z"/>
    <path class="cls-3" d="m140.27,158.17s-.93-1.11.16-1.59c1.15-.51,1.31.9,1.31.9,0,0,.89-1.34,1.6-.28.75,1.13-.57,1.45-.57,1.43,0,0,1.4.31.81,1.37s-1.66.02-1.66.02c0,0-.08,1.51-1.2,1.15-1.05-.33-.36-1.49-.36-1.49,0,0-1.32.65-1.45-.56s1.35-.95,1.35-.95Z"/>
  </g>
  <path class="cls-1" d="m162.03,123.34l-.59-1.78c-.19-.57-.63-1.01-1.2-1.2l-1.78-.59,1.78-.59c.57-.19,1.01-.63,1.2-1.2l.59-1.78.59,1.78c.19.57.63,1.01,1.2,1.2l1.78.59-1.78.59c-.57.19-1.01.63-1.2,1.2l-.59,1.78Z"/>
  <path class="cls-1" d="m165.6,183.04l-.59-1.78c-.19-.57-.63-1.01-1.2-1.2l-1.78-.59,1.78-.59c.57-.19,1.01-.63,1.2-1.2l.59-1.78.59,1.78c.19.57.63,1.01,1.2,1.2l1.78.59-1.78.59c-.57.19-1.01.63-1.2,1.2l-.59,1.78Z"/>
  <path class="cls-1" d="m91.63,186.61l-.59-1.78c-.19-.57-.63-1.01-1.2-1.2l-1.78-.59,1.78-.59c.57-.19,1.01-.63,1.2-1.2l.59-1.78.59,1.78c.19.57.63,1.01,1.2,1.2l1.78.59-1.78.59c-.57.19-1.01.63-1.2,1.2l-.59,1.78Z"/>
  <path class="cls-1" d="m181.61,166.89l-.39-1.16c-.12-.37-.41-.66-.78-.78l-1.16-.39,1.16-.39c.37-.12.66-.41.78-.78l.39-1.16.39,1.16c.12.37.41.66.78.78l1.16.39-1.16.39c-.37.12-.66.41-.78.78l-.39,1.16Z"/>
  <path class="cls-1" d="m103.91,190.61l-.39-1.16c-.12-.37-.41-.66-.78-.78l-1.16-.39,1.16-.39c.37-.12.66-.41.78-.78l.39-1.16.39,1.16c.12.37.41.66.78.78l1.16.39-1.16.39c-.37.12-.66.41-.78.78l-.39,1.16Z"/>
  <path class="cls-1" d="m129.21,112.71l-1.08-3.24c-.34-1.03-1.15-1.84-2.18-2.18l-3.24-1.08,3.24-1.08c1.03-.34,1.84-1.15,2.18-2.18l1.08-3.24,1.08,3.24c.34,1.03,1.15,1.84,2.18,2.18l3.24,1.08-3.24,1.08c-1.03.34-1.84,1.15-2.18,2.18l-1.08,3.24Z"/>
  <path class="cls-1" d="m184.7,188.29l-1.08-3.24c-.34-1.03-1.15-1.84-2.18-2.18l-3.24-1.08,3.24-1.08c1.03-.34,1.84-1.15,2.18-2.18l1.08-3.24,1.08,3.24c.34,1.03,1.15,1.84,2.18,2.18l3.24,1.08-3.24,1.08c-1.03.34-1.84,1.15-2.18,2.18l-1.08,3.24Z"/>
  <path class="cls-1" d="m113.17,211.75l-1.08-3.24c-.34-1.03-1.15-1.84-2.18-2.18l-3.24-1.08,3.24-1.08c1.03-.34,1.84-1.15,2.18-2.18l1.08-3.24,1.08,3.24c.34,1.03,1.15,1.84,2.18,2.18l3.24,1.08-3.24,1.08c-1.03.34-1.84,1.15-2.18,2.18l-1.08,3.24Z"/>
</svg>